<svg xmlns="http://www.w3.org/2000/svg" version="1.1" xmlns:xlink="http://www.w3.org/1999/xlink" xmlns:svgjs="http://svgjs.dev/svgjs" viewBox="0 0 11.110950303404232 11.238975448070725"><g transform="matrix(1,0,0,1,2.522474350426982,2.6734412619688994)"><rect width="11.238975448070725" height="11.238975448070725" x="-2.586486922760228" y="-2.6734412619688994" fill="#ffffff"></rect><g><path d=" M 0.08265528944917744 -0.5376719198688142 Q 0.06758429479187128 -0.5568789906447904 0.06300352357048317 -0.5765591418568297 Q 0.05842275234909522 -0.5962392930688687 0.060697594214363604 -0.6150922290571741 Q 0.0629724360796321 -0.6339451650454794 0.07103318830737182 -0.6517521874392778 Q 0.07909394053511148 -0.6695592098330764 0.08960741266920697 -0.6846358815570517 Q 0.10012088480330239 -0.6997125532810268 0.11163323270404879 -0.7115387560712598 Q 0.12314558060479519 -0.7233649588614928 0.13274911599278322 -0.7309004561901459 Q 0.14312093421181027 -0.7390387933050911 0.15773020256639142 -0.7477091432487947 Q 0.1723394709209724 -0.7563794931924981 0.18948418070428258 -0.7630050537750438 Q 0.20662889048759264 -0.7696306143575895 0.22565010805397923 -0.7730736944305927 Q 0.2446713256203658 -0.7765167745035959 0.26352426160867104 -0.7742419326383275 Q 0.2823771975969763 -0.7719670907730589 0.300018776946028 -0.7625352159279881 Q 0.3176603562950798 -0.7531033410829171 0.332731350952386 -0.7338962703069409 Q 0.34750092571654606 -0.7150733409464844 0.3526165483000267 -0.6955025389198315 Q 0.3577321708835073 -0.6759317368931785 0.35530661907166583 -0.6572708716126331 Q 0.35288106725982427 -0.6386100063320876 0.3450123857398443 -0.6209536938848621 Q 0.33714370421986434 -0.6032973814376367 0.3266302320857689 -0.5882207097136615 Q 0.3161167599516735 -0.5731440379896863 0.3042202706354076 -0.5610164153063071 Q 0.2923237813191416 -0.548888792622928 0.28195196310011456 -0.5407504555079827 Q 0.27234842771212653 -0.5332149581793296 0.258123300773065 -0.5248460281287722 Q 0.24389817383400347 -0.516477098078215 0.2267534640506933 -0.5098515374956694 Q 0.20960875426738318 -0.5032259769131235 0.19039546599323687 -0.49963218689354727 Q 0.17118217771909056 -0.4960383968739711 0.1524799516773584 -0.49812116803147966 Q 0.13377772563562618 -0.5002039391889883 0.11575200487105491 -0.5093343941409133 Q 0.09772628410648365 -0.5184648490928382 0.08265528944917744 -0.5376719198688142 M 0.7003106125422508 -0.24091821148033332 Q 0.7123674082680957 -0.2255525548595525 0.7232242014880252 -0.22041706254273036 Q 0.7340809947079547 -0.21528157022590821 0.7438856568352072 -0.2158373721843448 Q 0.7536903189624597 -0.21639317414278136 0.7621946854299152 -0.2205835864504796 Q 0.7706990518973706 -0.22477399875817783 0.7785444847191733 -0.22782671991749126 Q 0.786389917540976 -0.2308794410768047 0.793478962096579 -0.2305457164539767 Q 0.8005680066521819 -0.23021199183114854 0.8071992443013966 -0.2217608806897191 Q 0.8415611121200547 -0.1779687593204936 0.8114541296926303 -0.12300207044551514 Q 0.781347147265206 -0.06803538157053668 0.6956836116043528 -0.0008187453989510762 Q 0.6541963387282445 0.03173460306083031 0.6186955625223707 0.05214275720572434 Q 0.5831947863164969 0.07255091135061836 0.5533110984635119 0.0795520977486801 Q 0.5234274106105269 0.08655328414674184 0.49988773318028296 0.07988744366601186 Q 0.476348055750039 0.0732216031852819 0.45916712184070996 0.05132554250066916 Q 0.45253588419149526 0.042874431359239684 0.4538979507773218 0.03590946908719686 Q 0.45526001736314836 0.02894450681515405 0.4598991805457301 0.022201081447218468 Q 0.4645383437283118 0.015457656079282872 0.4706313510505982 0.008194112447428431 Q 0.4767243583728847 0.00093056881557399 0.4794042922500166 -0.00830977575323849 Q 0.4820842261271485 -0.01755012032205097 0.4798292539952216 -0.029124779580328053 Q 0.47757428186329465 -0.040699438838605134 0.46521606624430356 -0.056449236874905495 L 0.3042578433042734 -0.26158075276233006 Q 0.29220104757842846 -0.2769464093831109 0.28134425435849897 -0.282081901699933 Q 0.27048746113856953 -0.28721739401675517 0.2608748697190768 -0.28681230200489166 Q 0.25126227829958403 -0.2864072099930282 0.24275791183212858 -0.2822167976853299 Q 0.23425354536467313 -0.27802638537763164 0.22660018325063025 -0.27512437416489127 Q 0.21894682113658726 -0.2722223629521509 0.2118577765809843 -0.272556087574979 Q 0.20476873202538143 -0.2728898121978071 0.19813749437616668 -0.2813409233392366 Q 0.1809565604668376 -0.3032369840238493 0.1800812265522455 -0.3276865982002006 Q 0.17920589263765335 -0.3521362123765519 0.19311432615389384 -0.37949689379714824 Q 0.20702275967013428 -0.40685757521774457 0.2352894584405011 -0.43648512333510714 Q 0.2635561572108679 -0.4661126714524697 0.3050434300869762 -0.4986660199122511 Q 0.3465307029630845 -0.5312193683720324 0.37366308954990224 -0.5456818461763774 Q 0.40079547613672 -0.5601443239807223 0.42088355789395715 -0.559459303103558 Q 0.4409716396511944 -0.5587742822263935 0.4576086661669262 -0.543899277673184 Q 0.47424569268265787 -0.5290242731199746 0.49474224541659434 -0.5029026568646471 L 0.7003106125422508 -0.24091821148033332 M 1.5925792306123707 -0.7609641067151497 Q 1.6139910981177241 -0.7487566307481874 1.6322282968871091 -0.7450623158528117 Q 1.6504654956564937 -0.741368000957436 1.665531778348615 -0.7423654437412368 Q 1.6805980610407363 -0.7433628865250377 1.692932625504733 -0.7465413079197118 Q 1.7052671899687297 -0.749719729314386 1.7148732527692065 -0.7518036406978679 Q 1.7244793155696834 -0.7538875520813497 1.7315778158664614 -0.7522567769936267 Q 1.7386763161632395 -0.7506260019059037 1.7432710066150245 -0.741459136954566 Q 1.7588054362377261 -0.7104664030714715 1.7576299418221648 -0.6844796805960612 Q 1.756454447406604 -0.6584929581206509 1.7348613117048854 -0.6329229175421475 Q 1.713268176003167 -0.607352876963644 1.6698405938640797 -0.5795777335397327 Q 1.6264130117249924 -0.5518025901158217 1.5578797832792763 -0.5174518091191436 Q 1.527323566774817 -0.5021361742798605 1.5009067600499808 -0.49654189666787163 Q 1.4744899533251445 -0.49094761905588274 1.4511228712156459 -0.4928899674016095 Q 1.427755789106147 -0.4948323157473363 1.4066758664346264 -0.5025636122539359 Q 1.3855959437631056 -0.5102949087605353 1.3665865301225475 -0.5220680117252656 Q 1.3475771164819894 -0.5338411146899958 1.3295479906140075 -0.5480172076136224 Q 1.3115188647460259 -0.5621933005372489 1.2942533762436053 -0.5770252417170297 L 1.189776688589796 -0.6764975946357636 L 1.1845384800461742 -0.6738720572347436 Q 1.1705699239298502 -0.666870624165357 1.1605294881271413 -0.6623842589170797 Q 1.1504890523244324 -0.6578978936688024 1.1360829066412714 -0.6517694953566862 L 1.1831237850762126 -0.5579182589501325 Q 1.1925319607632008 -0.5391480116688218 1.2030212441088626 -0.5312971319825985 Q 1.213510527454524 -0.5234462522963753 1.2239933776709764 -0.5221463498542837 Q 1.2344762278874288 -0.520846447412192 1.2447370667558582 -0.5232585509708013 Q 1.2549979056242877 -0.5256706545294106 1.26416798714023 -0.5269898563591298 Q 1.2733380686561724 -0.5283090581888489 1.2808736224256865 -0.5263511631141999 Q 1.2884091761952006 -0.5243932680395511 1.2936602509972406 -0.5139168509523079 Q 1.3210095989245318 -0.4593521786229162 1.276841967560317 -0.40690093704770164 Q 1.2326743361961023 -0.35444969547248706 1.1261640958091297 -0.3010637683184143 Q 1.0746550451301842 -0.2752459838750513 1.031759975408922 -0.26111924580384827 Q 0.9888649056876598 -0.24699250773264528 0.9553469181955415 -0.2457585790601009 Q 0.9218289307034233 -0.2445246503875565 0.8977963506439566 -0.2570571019650417 Q 0.8737637705844898 -0.26958955354252695 0.8601984940125533 -0.2966536310179052 Q 0.8549474192105134 -0.30713004810514843 0.8578882825282426 -0.3143390179818373 Q 0.8608291458459716 -0.3215479878585261 0.8672648286632857 -0.32777774215084016 Q 0.8737005114805997 -0.3340074964431542 0.8815551438255282 -0.34067537639640566 Q 0.8894097761704568 -0.3473432563496571 0.8943138955038425 -0.35662863229241704 Q 0.8992180148372282 -0.365914008235177 0.8992051485788098 -0.3790159627234402 Q 0.8991922823203915 -0.3921179172117033 0.8893465170665666 -0.4117611992502843 L 0.724375250369145 -0.7408953027411747 Q 0.7147482798987385 -0.7601020674011205 0.7041495991613678 -0.7681712057766613 Q 0.6935509184239971 -0.7762403441522022 0.6831769295051531 -0.7778679026753205 Q 0.6728029405863092 -0.7794954611984388 0.6627603604071972 -0.7771927550315387 Q 0.6527177802280855 -0.7748900488646386 0.6438753547931697 -0.7734619857373111 Q 0.6350329293582541 -0.7720339226099835 0.6274973755887401 -0.7739918176846324 Q 0.619961821819226 -0.7759497127592814 0.614710747017186 -0.7864261298465246 Q 0.6011454704452495 -0.8134902073219028 0.6062506934567282 -0.8403542533073894 Q 0.611355916468207 -0.8672182992928761 0.6332756360627507 -0.8937713081144598 Q 0.6551953556572944 -0.9203243169360434 0.6928377422942144 -0.9465652164055226 Q 0.7304801289311342 -0.9728061158750017 0.78198917961008 -0.9986239003183647 L 1.0181450814516868 -1.1169918781476817 Q 1.0875513446546732 -1.1517802487111963 1.144962493544906 -1.1712712116348538 Q 1.202373642435139 -1.1907621745585113 1.2492064821638305 -1.1975775145846261 Q 1.2960393218925217 -1.204392854610741 1.3330569537311319 -1.1997343347658118 Q 1.3700745855697418 -1.1950758149208827 1.3981478998991377 -1.1815646838531233 Q 1.4262212142285335 -1.1680535527853642 1.446222173617784 -1.1472192296022998 Q 1.4662231330070346 -1.1263849064192355 1.4793508200121346 -1.1001938637011275 Q 1.493572480934326 -1.071820234089844 1.5016812902733234 -1.0420212218217366 Q 1.5097900996123208 -1.012222209553629 1.507200480516052 -0.9808841284841828 Q 1.5046108614197833 -0.9495460474147364 1.4892485521985803 -0.9164484944782303 Q 1.4738862429773776 -0.8833509415417242 1.4411656667791684 -0.8483802305936433 L 1.5925792306123707 -0.7609641067151497 M 1.1628477752181168 -0.7476585048589025 Q 1.2021343392952788 -0.7673500353665523 1.2082144891383262 -0.8020762190143782 Q 1.2142946389813738 -0.8368024026622042 1.1915399815058674 -0.8822002100402581 L 1.1849761380033175 -0.895295731399312 Q 1.1705356822977078 -0.9241058783892309 1.1548950718479016 -0.9520413823395771 Q 1.1392544613980955 -0.9799768862899232 1.1203474759259366 -0.9986286225798118 Q 1.1014404904537778 -1.0172803588697004 1.0781785169831821 -1.023371766688864 Q 1.0549165435125865 -1.0294631745080276 1.024796844386762 -1.0143663344521627 Q 1.0064631144840865 -1.0051769535485928 0.9983950482967474 -0.9934864432705335 Q 0.9903269821094081 -0.9817959329924741 0.9897939335974821 -0.9686934424101102 Q 0.9892608850855562 -0.9555909518277463 0.9941880564652747 -0.9414019926457015 Q 0.9991152278449933 -0.9272130334636566 1.0065542504812166 -0.9123714425900621 L 1.1015111864847722 -0.7229229002624143 Q 1.1026040882136623 -0.7218321429099273 1.109371715864809 -0.7235857177418785 Q 1.1150475139752674 -0.7253382203856282 1.1271616753735436 -0.7305909034699705 Q 1.1392758367718196 -0.7358435865543127 1.1628477752181168 -0.7476585048589025 M 2.0633189093097077 -1.2200530291334095 Q 2.0481508213284 -1.2163020649918432 2.0365783999714036 -1.2061469315014426 Q 2.0250059786144066 -1.1959917980110424 2.0188054511341003 -1.1793687541253757 Q 2.0126049236537935 -1.162745710239709 2.012604511803725 -1.1393565796534961 Q 2.012604099953656 -1.1159674490672833 2.0201060282367886 -1.0856312731046684 L 2.1713129053004474 -1.1230236968909082 Q 2.163107671240771 -1.1562038893500182 2.1523258035995587 -1.1774296260236081 Q 2.141543935958347 -1.1986553626971976 2.1282491757820314 -1.209702870837647 Q 2.1149544156057156 -1.2207503789780958 2.098616717446029 -1.2227460566442319 Q 2.082279019286342 -1.2247417343103675 2.0633189093097077 -1.2200530291334095 M 1.9982349927204033 -1.332723628406497 Q 2.0617513611421283 -1.348430790749306 2.117395361881291 -1.3420715759357464 Q 2.1730393626204534 -1.3357123611221864 2.217031804261027 -1.3113820996845846 Q 2.261024245901601 -1.2870518382469829 2.2912984232335063 -1.247005892418854 Q 2.321572600565412 -1.2069599465907255 2.3343493221726224 -1.155293646904397 Q 2.3396241154967 -1.1339635231806835 2.3366295218646003 -1.1206482340774877 Q 2.3336349282325006 -1.107332944974292 2.3241394765490235 -1.0989489065045508 Q 2.3146440248655464 -1.0905648680348097 2.2988795842736787 -1.0851574603861478 Q 2.283115143681812 -1.0797500527374861 2.26273302545693 -1.074709694672256 L 2.0347377029879024 -1.0183280149193368 Q 2.0476316422245366 -0.9661877124835924 2.066326111701934 -0.936355920810645 Q 2.0850205811793314 -0.9065241291376975 2.1084349610740754 -0.893200729836853 Q 2.13184934096882 -0.8798773305360084 2.1599759329333312 -0.8800424806666354 Q 2.1881025248978427 -0.8802076307972625 2.2203347118581207 -0.888178429598091 Q 2.237398810837092 -0.8923982642573531 2.2548273932836347 -0.9002291622360862 Q 2.2722559757301775 -0.9080600602148192 2.287793679410777 -0.9174353163029438 Q 2.3033313830913764 -0.9268105723910685 2.3161448540207648 -0.9360151342667773 Q 2.328958324950153 -0.945219696142486 2.3371489860148067 -0.9527780789745395 Q 2.343678071340645 -0.9589195857900653 2.350788112581883 -0.9606778502314246 Q 2.3616901758184476 -0.9633738557081755 2.370137955334621 -0.9556546312770775 Q 2.378585734850794 -0.9479354068459795 2.3813989579569688 -0.936559340859999 Q 2.3823366989923604 -0.9327673188646721 2.382683219648912 -0.9293320819893371 Q 2.3830297403054637 -0.9258968451140023 2.382428255463184 -0.9222271729798195 Q 2.377356280307496 -0.8837516582697514 2.361040853490412 -0.848028603585355 Q 2.344725426673328 -0.8123055489009585 2.3162848498583077 -0.7818833605493087 Q 2.2878442730432877 -0.7514611721976591 2.24633567296322 -0.7281186435469955 Q 2.204827072883152 -0.7047761148963321 2.1493687512014965 -0.6910616522537301 Q 2.0962804432669206 -0.6779332777582477 2.049328921766219 -0.6796517198960527 Q 2.0023774002655177 -0.6813701620338576 1.9614963580363987 -0.6951525792390266 Q 1.9206153158072796 -0.7089349964441957 1.886569233556859 -0.7327069851590694 Q 1.8525231513064382 -0.7564789738739431 1.8261351185565433 -0.7879291291661543 Q 1.7997470858066484 -0.8193792844583654 1.7813075805149792 -0.8563159851408306 Q 1.7628680752233101 -0.8932526858232959 1.7530217943516984 -0.9330689167742279 Q 1.7430582958506626 -0.9733591504745758 1.7422766760326642 -1.0151655150098549 Q 1.7414950562146658 -1.056971879545134 1.7507158384856722 -1.0969763556694334 Q 1.7599366207566787 -1.1369808317937329 1.7795114580049618 -1.1737614112588048 Q 1.799086295253245 -1.2105419907238768 1.8296598844406364 -1.2414916584079343 Q 1.860233473628028 -1.2724413260919918 1.9022160764575118 -1.2959010723720792 Q 1.9441986792869956 -1.3193608186521668 1.9982349927204033 -1.332723628406497 M 2.7747806109317805 -1.4484236352781545 Q 2.847373244788162 -1.4532651623541053 2.8998450116697363 -1.4406156602685498 Q 2.9523167785513107 -1.427966158182994 2.987022337622176 -1.4028763298720501 Q 3.021727896693042 -1.377786501561106 3.0392680723993784 -1.3422538827700046 Q 3.0568082481057144 -1.3067212639789028 3.0595376996116195 -1.2657965576437618 Q 3.0606749710724133 -1.2487445966707864 3.0561931070363766 -1.2352327986039557 Q 3.051711243000339 -1.2217210005371253 3.043315439564769 -1.2118630925225191 Q 3.0349196361291986 -1.2020051845079127 3.0225773998237866 -1.196288365430473 Q 3.010235163518374 -1.1905715463530333 2.9956191969701096 -1.1895967422437814 Q 2.9829520259616134 -1.1887519120157632 2.9695052148354 -1.192259378281916 Q 2.956058403709186 -1.1957668445480687 2.9437157610644062 -1.2047309789595104 Q 2.9313731184196268 -1.2136951133709521 2.921076548555857 -1.2286681017532415 Q 2.9107799786920876 -1.243641090135531 2.90441329020848 -1.2657273041397863 Q 2.8994434146087658 -1.2815449195804103 2.8908358956919815 -1.2932049961790297 Q 2.8822283767751973 -1.3048650727776494 2.871672163903486 -1.3127249371228151 Q 2.861115951031775 -1.3205848014679806 2.8489033838530706 -1.3239299019674333 Q 2.8366908166743663 -1.327275002466886 2.824998043435755 -1.3264951591794847 Q 2.804048491383242 -1.3250979399562237 2.789286608973115 -1.3153048157125504 Q 2.7745247265629884 -1.3055116914688774 2.7654145747048426 -1.2880209670618967 Q 2.7563044228466973 -1.270530242654916 2.753040860777541 -1.2460889631471952 Q 2.749777298708385 -1.2216476836394747 2.7517918938675052 -1.191441352773061 Q 2.75959032674152 -1.0745136203869436 2.7986652417204456 -1.0205979257734832 Q 2.8377401566993714 -0.9666822311600227 2.9156919782901163 -0.9718811864093657 Q 2.9381031269974556 -0.9733758860435519 2.961082505095824 -0.9810255586801317 Q 2.9840618831941925 -0.9886752313167115 3.0035496354221953 -0.997315446873488 Q 3.0230373876501977 -1.0059556624302646 3.0372471858196075 -1.0130204526012934 Q 3.0514569839890173 -1.0200852427723222 3.056816171723381 -1.0204426709457144 Q 3.0680217460770507 -1.0211900207628075 3.074988954252312 -1.0121120576204445 Q 3.081956162427574 -1.0030340944780816 3.082768499185284 -0.9908541223545277 Q 3.083028446947751 -0.9869565312749905 3.0830123017974387 -0.9835298923452411 Q 3.082996156647126 -0.9801032534154919 3.0817620142844584 -0.9765953808099717 Q 3.070037763423957 -0.9396003526853087 3.0462470644162973 -0.9074282684500791 Q 3.0224563654086376 -0.8752561842148494 2.98815819373473 -0.8502131659973722 Q 2.9538600220608213 -0.8251701477798951 2.9093953559892194 -0.8094810840327183 Q 2.864930689917617 -0.7937920202855416 2.811826011458922 -0.7902502320219268 Q 2.7572597363454006 -0.7866109633473867 2.7110891630826077 -0.7964998410596731 Q 2.664918589819815 -0.8063887187719596 2.6270788330519754 -0.8271099022687367 Q 2.589239076284136 -0.8478310857655138 2.560119956070109 -0.8772084267996959 Q 2.5310008358560823 -0.906585767833878 2.510277620662468 -0.9421507785104459 Q 2.489554405468853 -0.977715789187014 2.4778605147969808 -1.0173085679940366 Q 2.4661666241251083 -1.056901346801059 2.4634371726192033 -1.0978260531362003 Q 2.46067522764299 -1.1392379583562835 2.46721880168614 -1.180536441184813 Q 2.47376237572929 -1.2218349240133424 2.4898389230839624 -1.259609592255723 Q 2.505915470438635 -1.2973842604981036 2.531622471515755 -1.330173517499509 Q 2.557329472592875 -1.3629627745009145 2.5928456414791383 -1.3880870263941625 Q 2.628361810365402 -1.4132112782874109 2.673800874206888 -1.4289653289752042 Q 2.719239938048375 -1.4447193796629978 2.7747806109317805 -1.4484236352781545 M 3.533853500891841 -0.966882927702959 Q 3.5316658475752947 -0.9469832843786095 3.5357775561188864 -0.9352331384531936 Q 3.5398892646624787 -0.9234829925277777 3.5472840476310514 -0.9170209881874597 Q 3.554678830599624 -0.9105589838471416 3.56366050823958 -0.9073610860916792 Q 3.5726421858795354 -0.9041631883362169 3.5803837919348775 -0.9008560054985396 Q 3.58812539799022 -0.8975488226608623 3.5929574314063335 -0.8923509983178542 Q 3.597789464822447 -0.887153173974846 3.5966156020672266 -0.8764753165812926 Q 3.5905328586992677 -0.8211446009965159 3.5305661659002716 -0.8029302376665853 Q 3.470599473101275 -0.7847158743366549 3.362364827702984 -0.7966145740827499 Q 3.3099462550437218 -0.8023771730629214 3.270301900016345 -0.8126301229450084 Q 3.2306575449889676 -0.8228830728270953 3.20440615824264 -0.8387864090987641 Q 3.1781547714963123 -0.8546897453704329 3.16599771006343 -0.8759207533576104 Q 3.1538406486305477 -0.8971517613447881 3.1568820203145274 -0.9248171191371765 Q 3.158055883069747 -0.9354949765307299 3.163901707047187 -0.9395189381185178 Q 3.169747531024627 -0.9435428997063059 3.177780032482489 -0.9451159671101351 Q 3.1858125339403505 -0.9466890345139645 3.1952477494630047 -0.9476166725696478 Q 3.204682964985659 -0.948544310625331 3.2130622895302903 -0.953272199531801 Q 3.2214416140749216 -0.9580000884382711 3.227927726827936 -0.9678483358770883 Q 3.2344138395809505 -0.9776965833159054 3.2366014928974973 -0.9975962266402549 L 3.265094343410568 -1.2567769470110515 Q 3.26722863932915 -1.2761912331811485 3.2630635733875932 -1.287456021952312 Q 3.2588985074460366 -1.2987208107234753 3.2517464030545904 -1.3051561363648112 Q 3.2445942986631437 -1.3115914620061468 3.2355859423242057 -1.314546681184483 Q 3.2265775859852677 -1.3175019003628192 3.2190786585070517 -1.3207824045015144 Q 3.2115797310288356 -1.3240629086402094 3.2067476976127223 -1.3292607329832173 Q 3.201915664196609 -1.3344585573262255 3.2030895269518287 -1.345136414719779 Q 3.2061308986358084 -1.3728017725121675 3.222609909303819 -1.3908846940194364 Q 3.23908891997183 -1.4089676155267052 3.2681682488102792 -1.4187882084304153 Q 3.2972475776487284 -1.4286088013341252 3.3381725102272544 -1.4300044231540965 Q 3.3790974428057803 -1.4314000449740678 3.431516015465043 -1.4256374459938963 Q 3.479566373736033 -1.4203550635954056 3.507404655153744 -1.4077158339085925 Q 3.5352429365714544 -1.3950766042217793 3.549717498693384 -1.3748188808293924 Q 3.564267932175814 -1.3820613024629287 3.579709043869802 -1.388468973569157 Q 3.5951501555637897 -1.3948766446753855 3.6123192662829293 -1.3991294575727462 Q 3.6294883770020685 -1.4033822704701069 3.649276164957918 -1.4046454746312917 Q 3.6690639529137665 -1.4059086787924766 3.6923610963178835 -1.403347523690178 Q 3.7214825255730286 -1.400146079812305 3.7477528801594815 -1.391117779797117 Q 3.7740232347459344 -1.382089479781929 3.793372906536799 -1.3659624327732593 Q 3.812722578327664 -1.3498353857645893 3.8226714241537136 -1.326391021598008 Q 3.8326202699797633 -1.3029466574314261 3.8290453243161386 -1.2704277280965135 Q 3.826697598805698 -1.2490720133094069 3.8171762307774006 -1.2294873738002732 Q 3.807654862749103 -1.2099027342911395 3.7916027112648085 -1.1957026700178899 Q 3.775550559780514 -1.1815026057446403 3.7528850184569897 -1.1741698668690141 Q 3.730219477133466 -1.166837127993388 3.702068762186825 -1.169931857075332 Q 3.6739180472401842 -1.1730265861572762 3.6588083369152518 -1.1830384519123975 Q 3.643698626590319 -1.1930503176675191 3.636296132762889 -1.2061446796871917 Q 3.628893638935459 -1.2192390417068644 3.6263421463642675 -1.2340106156400097 Q 3.623790653793076 -1.248782189573155 3.620513695776792 -1.2614230137101288 Q 3.6172367377605075 -1.2740638378471028 3.6106207776349923 -1.2831419491378446 Q 3.604004817509477 -1.2922200604285865 3.588958745727652 -1.2938741397654876 Q 3.5739126739458267 -1.2955282191023887 3.5686589219185683 -1.292421614425141 Q 3.56340516989131 -1.2893150097478934 3.5626581663198063 -1.2825200095883593 Q 3.561697733156444 -1.2737835808118156 3.563601226093204 -1.2598200787069957 Q 3.5655047190299634 -1.2458565766021759 3.5633704231113814 -1.2264422904320789 L 3.533853500891841 -0.966882927702959 M 4.476274622040559 -1.0045428219764354 Q 4.4826514964920285 -1.0235195736399818 4.481137443908731 -1.0358759372309023 Q 4.479623391325433 -1.0482323008218228 4.473775041416735 -1.0561213513725556 Q 4.467926691508037 -1.064010401923288 4.459832487933019 -1.0690483530711878 Q 4.451738284358 -1.0740863042190876 4.444878966548459 -1.0789668453597459 Q 4.438019648738918 -1.0838473865004041 4.434405893592332 -1.0899553074704007 Q 4.430792138445746 -1.0960632284403973 4.43421387595629 -1.1062458756744955 Q 4.451944697601841 -1.1590105022511858 4.514415157506663 -1.1640313503910795 Q 4.576885617411486 -1.1690521985309732 4.680100632557117 -1.1343682228559049 Q 4.714814202673361 -1.1227032086154112 4.736241961027514 -1.1082911325101763 Q 4.757669719381668 -1.0938790564049417 4.769286775953425 -1.0770974933387731 Q 4.780903832525183 -1.0603159302726048 4.784022839841626 -1.041238894039036 Q 4.787141847158069 -1.0221618578054672 4.784465877034963 -1.0011687997923397 Q 4.7817899069118575 -0.9801757417792123 4.775018569200267 -0.9577257566200065 Q 4.768247231488675 -0.9352757714608007 4.760159488281933 -0.911207696180205 L 4.676793519843203 -0.6631213817494503 Q 4.67057217891494 -0.6446074776874537 4.67201034122067 -0.6327917284596865 Q 4.673448503526399 -0.6209759792319192 4.679296853435097 -0.6130869286811865 Q 4.685145203343795 -0.6051978781304539 4.693085749879641 -0.6004691175449324 Q 4.701026296415488 -0.5957403569594109 4.707885614225029 -0.5908598158187527 Q 4.71474493203457 -0.5859792746780944 4.7181272633803815 -0.5799491204697012 Q 4.721509594726193 -0.5739189662613078 4.718087857215648 -0.5637363190272096 Q 4.700357035570097 -0.5109716924505192 4.63904369466915 -0.5055620105026091 Q 4.577730353768202 -0.5001523285546989 4.47821811943497 -0.5335920360441146 Q 4.453687196552824 -0.5418353127740636 4.43595471307493 -0.5519149680379329 Q 4.418222229597037 -0.5619946233018023 4.40612731355145 -0.572755414579752 Q 4.394032397505863 -0.5835162058577017 4.386416053404674 -0.5945749287938202 Q 4.378799709303484 -0.6056336517299387 4.374656598697954 -0.6162979114059359 Q 4.36467827357197 -0.640255488780163 4.368755921887971 -0.6661862133711678 Q 4.335511368738186 -0.6469659480864652 4.295494646960639 -0.6367178385628366 Q 4.27849854845001 -0.6321268922280359 4.258032969411792 -0.6294744854812127 Q 4.237567390373573 -0.6268220787343894 4.214484012217331 -0.627109797056212 Q 4.19140063406109 -0.6273975153780345 4.165701333270859 -0.631397396932431 Q 4.14000203248063 -0.6353972784868275 4.112694023989185 -0.644573756356016 Q 4.0617807878186944 -0.6616824439087403 4.029030151582882 -0.6868534348078897 Q 3.99627951534707 -0.7120244257070392 3.9777460155285524 -0.7419475259163008 Q 3.959212515710035 -0.7718706261255623 3.9529632421729395 -0.805392469609131 Q 3.946713968635844 -0.8389143130926998 3.948340610261237 -0.8728802393374693 Q 3.94996725188663 -0.9068461655822386 3.9576127888162063 -0.9395621941892507 Q 3.9652583257457827 -0.9722782227962627 3.974901404184591 -1.0009747740923574 L 4.026071933319558 -1.1532516350022797 Q 4.032604341294234 -1.172691234267376 4.0311680554725395 -1.1852790216590714 Q 4.029731769650845 -1.197866809050767 4.023807529464579 -1.206296473964653 Q 4.017883289278313 -1.2147261388785386 4.009789085703294 -1.2197640900264384 Q 4.001694882128276 -1.224802041174338 3.994681907279563 -1.2299917728773746 Q 3.987668932430851 -1.235181504580411 3.9840551772842643 -1.2412894255504079 Q 3.9804414221376776 -1.2473973465204045 3.9838631596482226 -1.2575799937545025 Q 4.001593981293773 -1.3103446203311928 4.064064441198596 -1.3153654684710867 Q 4.126534901103418 -1.3203863166109804 4.22974991624905 -1.285702340935912 Q 4.275571828802491 -1.27030452213846 4.299147032736978 -1.2500197018320736 Q 4.322722236671465 -1.229734881525687 4.330615871106439 -1.2057051668419614 Q 4.338509505541413 -1.181675452158236 4.333809723132587 -1.1538933371610314 Q 4.329109940723761 -1.126111222163827 4.3188447281921265 -1.0955632804615325 L 4.242011167728074 -0.8669165652958744 Q 4.232368089289265 -0.8382200139997795 4.22922176562847 -0.8142943368541461 Q 4.226075441967675 -0.7903686597085127 4.2312013732135245 -0.7711323369836673 Q 4.236327304459373 -0.751896014258822 4.250730829060605 -0.7380414408730549 Q 4.2651343536618365 -0.7241868674872878 4.290590971747082 -0.7156325237109256 Q 4.306790637801329 -0.7101888503986951 4.322849782204649 -0.7104586347963401 Q 4.338908926607969 -0.710728419193985 4.352665091907748 -0.7164081001912319 Q 4.366421257207528 -0.7220877811884787 4.376946871716633 -0.7327163876678124 Q 4.387472486225738 -0.7433449941471463 4.392605092491555 -0.7586189649982935 L 4.476274622040559 -1.0045428219764354 M 5.186841213860637 -1.0809410245127644 Q 5.198909159470348 -1.102163916316545 5.215388130808953 -1.113857304205982 Q 5.231867102147559 -1.1255506920954188 5.25017706272498 -1.1305859125021573 Q 5.2684870233023995 -1.1356211329088959 5.288020416358677 -1.1349053614934002 Q 5.307553809414953 -1.1341895900779044 5.325489239547812 -1.1301697054357447 Q 5.343424669680671 -1.126149820793585 5.358730122294077 -1.1199743574974192 Q 5.374035574907484 -1.1137988942012536 5.384647020809374 -1.1077649213963983 Q 5.396107382383416 -1.1012482307671545 5.409665062623151 -1.091011288034114 Q 5.423222742862885 -1.0807743453010736 5.435848276927471 -1.0674163882652503 Q 5.4484738109920565 -1.054058431229427 5.45886469537911 -1.0377583993352308 Q 5.4692555797661635 -1.021458367441035 5.474290800172902 -1.0031484068636147 Q 5.479326020579641 -0.9848384462861947 5.477278615667605 -0.9649388553821547 Q 5.47523121075557 -0.9450392644781149 5.46316326514586 -0.9238163726743343 Q 5.451336678448343 -0.9030179387066295 5.435161485489716 -0.8908709629869607 Q 5.4189862925310885 -0.8787239872672918 5.400797011409765 -0.873900995778591 Q 5.382607730288442 -0.8690780042898903 5.363286566150203 -0.8696730962492888 Q 5.343965402011964 -0.8702681882086873 5.326029971879105 -0.8742880728508471 Q 5.3080945417462475 -0.878307957493007 5.292364631296765 -0.8847247797013671 Q 5.276634720847282 -0.8911416019097269 5.2651743592732405 -0.8976582925389706 Q 5.25456291337135 -0.9036922653438259 5.241429690967691 -0.9136878491646722 Q 5.228296468564032 -0.9236834329855184 5.215670934499447 -0.9370413900213416 Q 5.203045400434861 -0.9503993470571649 5.1924422871297695 -0.966820058407458 Q 5.181839173824678 -0.9832407697577513 5.176683273961842 -1.0013385014171337 Q 5.171527374099007 -1.0194362330765159 5.173150321174966 -1.03957718289275 Q 5.174773268250926 -1.059718132708984 5.186841213860637 -1.0809410245127644 M 5.1461342017750065 -0.3969060833331603 Q 5.136479845287238 -0.3799277698901359 5.135838985415797 -0.36793474946233606 Q 5.135198125544356 -0.35594172903453636 5.13942605234937 -0.34707804186846236 Q 5.143653979154385 -0.33821435470238836 5.150753242391044 -0.33193070402639596 Q 5.157852505627704 -0.32564705335040356 5.163649265361981 -0.31954234211882104 Q 5.169446025096257 -0.3134376308872385 5.171822151627244 -0.3067503334103839 Q 5.17419827815823 -0.3000630359335293 5.168888382089958 -0.2907249635398659 Q 5.141373466099818 -0.24233677022724617 5.079098816377089 -0.24938200114434447 Q 5.0168241666543585 -0.2564272320614428 4.922170069209497 -0.3102502694807515 Q 4.876328622913332 -0.3363170319977261 4.843994929465386 -0.3614433157427528 Q 4.811661236017441 -0.38656959948777947 4.7938631505342775 -0.41157519013885313 Q 4.776065065051115 -0.43658078078992674 4.77331859483075 -0.4608914110607182 Q 4.770572124610384 -0.4852020413315096 4.784329582605454 -0.5093961379878195 Q 4.789639478673727 -0.5187342103814829 4.796601424536403 -0.5201116117900649 Q 4.80356337039908 -0.5214890131986469 4.811561490337261 -0.5197495597839177 Q 4.819559610275442 -0.5180101063691883 4.828589744809655 -0.5151221183818008 Q 4.837619879343869 -0.5122341303944132 4.847186832211312 -0.5132536529141755 Q 4.856753785078755 -0.5142731754339376 4.866612037887762 -0.520744070875427 Q 4.876470290696769 -0.5272149663169163 4.886366006096732 -0.5446177375960164 L 5.01525166520844 -0.7712782220603928 Q 5.024906021696208 -0.7882565355034172 5.025546881567649 -0.8002495559312169 Q 5.02618774143909 -0.8122425763590166 5.022172043552113 -0.8209855840689936 Q 5.018156345665137 -0.8297285917789705 5.0110570824284775 -0.836012242454963 Q 5.003957819191818 -0.8422958931309553 4.998373288375579 -0.8482799249064408 Q 4.992788757559341 -0.8542639566819261 4.990412631028353 -0.8609512541587807 Q 4.988036504497367 -0.8676385516356353 4.993346400565639 -0.8769766240292988 Q 5.0071038585607095 -0.9011707206856086 5.029400400668806 -0.9112411751369416 Q 5.051696942776902 -0.9213116295882748 5.082287050606357 -0.9188023042492086 Q 5.112877158435814 -0.9162929789101423 5.15100346577642 -0.9013536832309303 Q 5.189129773117027 -0.8864143875517183 5.234971219413192 -0.8603476250347437 Q 5.280812665709359 -0.8342808625177691 5.30447410351191 -0.8146475737648964 Q 5.328135541314461 -0.7950142850120236 5.335109951977697 -0.7761633466219025 Q 5.342084362640932 -0.757312408231781 5.334618874280798 -0.736280934310825 Q 5.3271533859206635 -0.7152494603898687 5.310740979891457 -0.6863863275367271 L 5.1461342017750065 -0.3969060833331603 M 5.591748413073303 -0.14697533789051362 Q 5.581893810082978 -0.13422682297525063 5.573558405192845 -0.12184685597839698 Q 5.565223000302712 -0.1094668889815433 5.561919202647707 -0.0972089984400415 Q 5.558615404992702 -0.08495110789853971 5.562547355639853 -0.07327153603155476 Q 5.566479306287004 -0.0615919641645698 5.58077309573745 -0.050542863842084396 Q 5.600861664694834 -0.03501439852399685 5.619766360592016 -0.028732663258195124 Q 5.638671056489199 -0.022450927992393455 5.661079855801711 -0.018706340281256173 Q 5.6699485729398065 -0.01740521865677644 5.675357033812948 -0.013224477994214417 Q 5.684242362390252 -0.006356118334291033 5.683485177285694 0.0054016828376678705 Q 5.6827279921811344 0.017159484009626802 5.675262383855131 0.026817449854523 Q 5.670185770193449 0.033384866629052434 5.664969309361028 0.036141249935606024 Q 5.6316678683359775 0.0560687231783345 5.596471534848898 0.06527411541896291 Q 5.561275201361818 0.07447950765959133 5.526045644996319 0.07255042382933241 Q 5.49081608863082 0.07062133999907344 5.456817730304431 0.057918022296731764 Q 5.4228193719780435 0.04521470459439006 5.391527562640579 0.021026133618138237 Q 5.348259875655445 -0.0124197916823581 5.325865178443421 -0.04731981938875143 Q 5.303470481231397 -0.0822198470951448 5.2964076121920325 -0.11699432051765561 Q 5.289344743152668 -0.1517687939401664 5.295260249052414 -0.1857683115427317 Q 5.30117575495216 -0.21976782914529702 5.314870945673983 -0.2514565813885152 Q 5.328566136395805 -0.28314533363173333 5.3471957750562185 -0.31163691251226555 Q 5.365825413716632 -0.34012849139279777 5.384340122365121 -0.3640802466881404 L 5.535444034883434 -0.5595574753888395 L 5.516514421827438 -0.5741900677078067 Q 5.502220632376991 -0.585239168030292 5.500528364227642 -0.5998161296507458 Q 5.498836096078292 -0.6143930912711997 5.506600328737336 -0.6244373757498917 Q 5.51585768306158 -0.6364132533975629 5.5329457158017075 -0.6361644633821517 Q 5.6032294399311935 -0.6336761816553058 5.664144357553043 -0.6350356341033856 Q 5.725059275174891 -0.6363950865514656 5.770616288189089 -0.6394431385339979 Q 5.82379536813924 -0.642770884858007 5.8677194123174985 -0.647698377139536 Q 5.885527929455234 -0.6499784289591842 5.899691336730724 -0.6467445548895484 Q 5.913854744006214 -0.6435106808199125 5.92351270985111 -0.6360450724939088 Q 5.9354885874987815 -0.6267877181696644 5.937330167814651 -0.6124039158661085 Q 5.939171748130521 -0.5980201135625526 5.926032277476755 -0.5810220936755353 L 5.829277993571747 -0.45585485632568057 L 5.923539740217934 -0.382990519063885 Q 5.928175563823484 -0.3794070270674032 5.934101884781556 -0.373900247621547 Q 5.940028205739627 -0.36839346817569085 5.943135366249203 -0.360437235475926 Q 5.9462425267587795 -0.3524810027761612 5.944475697919353 -0.34181223392022064 Q 5.942708869079927 -0.33114346506428005 5.931958393090482 -0.31723599424762955 Q 5.920312044101916 -0.30216956752959145 5.910177746770114 -0.2970431195502801 Q 5.9000434494383125 -0.2919166715709688 5.891262426600973 -0.2925328502286125 Q 5.882481403763634 -0.2931490288862562 5.875659209806443 -0.2974968524307248 Q 5.868837015849251 -0.3018446759751935 5.863814873609905 -0.3057267923047154 L 5.769553126963718 -0.378591129566511 L 5.591748413073303 -0.14697533789051362" fill="#202020" fill-rule="nonzero"></path></g><g><path d=" M -1.0469882943758235 1.4144431601328389 Q -1.0020821253258205 1.485573586251542 -0.9242112616119297 1.5214083504279368 Q -0.8463403978980388 1.5572431146043315 -0.7866570383275499 1.5599235266414568 Q -0.7269736787570609 1.5626039386785822 -0.6782486029592858 1.5417276059842577 Q -0.6295235271615106 1.5208512732899337 -0.5845950796457096 1.4764291289001745 Q -0.5022313521192421 1.396081097647362 -0.4301082191566248 1.2393536630839614 Q -0.3976754895539383 1.168875602887212 -0.40901112161355524 1.1636591498741926 L -0.9595285568566954 0.9103209752853763 Q -1.0037418316858504 0.9843361998157311 -1.0458136592473772 1.0757605366443814 Q -1.087885486808904 1.167184873473032 -1.0898899751173652 1.2552488037435836 Q -1.0918944634258263 1.3433127340141358 -1.0469882943758235 1.4144431601328389 M -0.8010571554903116 1.6775194220225933 Q -0.8688246585286986 1.6800771916059276 -0.9380705848059243 1.6482114677655257 Q -1.0073165110831501 1.616345743925124 -1.0573323193082425 1.567350133678376 Q -1.1073481275333346 1.5183545234316278 -1.133388489653643 1.460086367941517 Q -1.1594288517739515 1.4018182124514065 -1.1657179263523503 1.3350211377911356 Q -1.179015731381871 1.2016930397334893 -1.1127894583470148 1.057779797933134 Q -1.0884431138052653 1.00746948505859 -1.0303817237473092 0.8812989716993742 Q -0.972320333689353 0.7551284583401586 -0.9597590175601497 0.7382144412027112 Q -0.9324381687255914 0.7048007625796624 -0.9012008406066646 0.7173839447808954 Q -0.8839509657333344 0.7253220254528816 -0.894937840357194 0.7608772888081482 Q -0.9002240998432008 0.7775558121977058 -0.9002546573582064 0.784111212968179 Q -0.9012142901648972 0.8069613389913692 -0.8736144903675688 0.8196622680665472 L -0.39357511532117817 1.040567713052677 Q -0.356118244167661 1.0578046882261327 -0.3361509498922626 1.0222014844699083 Q -0.31939813684364027 0.9922857212224834 -0.3111373730648248 0.9925038320844213 Q -0.30287660928600935 0.9927219429463591 -0.2915409772263923 0.9979383959593786 Q -0.2802053451667753 1.003154848972398 -0.27448958873600904 1.0147434951304466 Q -0.2687738323052429 1.0263321412884951 -0.27416914722221863 1.0471410465674604 Q -0.2810735803576282 1.0738249457021571 -0.3123722984357451 1.1418387380598594 L -0.3824542106541374 1.2941304905129751 Q -0.5024326299535857 1.5548500278841666 -0.6750454671622929 1.644431080493181 Q -0.7332896524519247 1.674961652439259 -0.8010571554903116 1.6775194220225933 M -1.3873546697150767 1.8166549213509278 Q -1.3574121559124213 1.7016745976198056 -1.3101599680777136 1.7139797402784311 Q -1.291784117253105 1.7187650735345632 -1.2963561173672624 1.7556972408310938 Q -1.2981061576550676 1.7731816377644691 -1.2969849979891936 1.7796405242030793 Q -1.2939168375262056 1.8023040531818748 -1.2650405005161065 1.8098238625843683 L -0.7531417989734395 1.9431295747194781 Q -0.7153400487056734 1.9529736888463785 -0.6998355200640735 1.9149641037239693 Q -0.6968713381430716 1.907887211008762 -0.694443115991343 1.9017920050084447 Q -0.6920148938396146 1.8956967990081275 -0.6901335669171582 1.8917016902449082 Q -0.6882522399947019 1.8877065814816891 -0.6867920199541986 1.8864049561685017 Q -0.6853317999136954 1.8851033308553142 -0.6828789576983033 1.883219254789192 Q -0.6804261154829111 1.8813351787230699 -0.6775275463219024 1.8809687491411111 Q -0.6701553350720613 1.8806460613991478 -0.6630675068968551 1.8824918327979416 Q -0.655979678721649 1.8843376041967355 -0.6502946441432859 1.8883408992762876 Q -0.6446096095649227 1.8923441943558397 -0.6414567145656097 1.8996124881783594 Q -0.6383038195662967 1.9068807820008788 -0.6365892736874891 1.9132138800921699 Q -0.6348747278086816 1.9195469781834609 -0.635976704583559 1.9313135341584764 Q -0.6370786813584365 1.9430800901334921 -0.637748615791362 1.9510347521362679 Q -0.6384185502242876 1.9589894141390438 -0.641995240134555 1.9748768672245978 Q -0.6455719300448222 1.9907643203101517 -0.6478962347692292 1.9996897335678185 Q -0.6522713966034072 2.0164905114646037 -0.6566465584375851 2.0332912893613884 Q -0.6610217202717631 2.0500920672581735 -0.6640870704764206 2.0607867036946423 Q -0.6671524206810782 2.071481340131111 -0.6721674597118511 2.0864335974854367 Q -0.6771824987426238 2.1013858548397617 -0.6813553240094906 2.1109511452940235 Q -0.6855281492763573 2.1205164357482857 -0.6921428812986173 2.1308473917464616 Q -0.6987576133208774 2.1411783477446376 -0.705123517792165 2.1462481251900694 Q -0.7201140186991538 2.158602630205351 -0.7350772115134779 2.1547060016967867 Q -0.7500404043278021 2.150809373188222 -0.7518369967139333 2.1394092467951653 Q -0.7536335891000647 2.1280091204021083 -0.7512327361556657 2.1112548334889847 Q -0.7488318832112666 2.094500546575861 -0.7499530428771406 2.0880416601372507 Q -0.7540712519586777 2.065104683543819 -0.7829475889687769 2.057584874141326 L -1.2948462905114437 1.9242791620062158 Q -1.317947360119523 1.9182633144842212 -1.3308733193130764 1.9280719953167886 Q -1.3437992785066295 1.9378806761493559 -1.3502171111342456 1.9549904571844394 Q -1.3566349437618614 1.972100238219523 -1.3595772547628657 1.976940309890314 Q -1.3664189434161005 1.9902956233968179 -1.3803320876118754 1.9866724425028894 Q -1.3942452318076506 1.9830492616089608 -1.400890082180906 1.976273185715719 Q -1.4075349325541613 1.9694971098224774 -1.4096514635385902 1.9571727231581906 Q -1.4117679945230188 1.944848336493904 -1.4120578758849855 1.9341208936774386 Q -1.4123477572469523 1.9233934508609731 -1.4084757488020512 1.9042191281124539 Q -1.4026677361346995 1.875457643989675 -1.3873546697150767 1.8166549213509278 M -0.7920908308626491 2.9836790923959002 L -0.7964663880881073 3.041567713368579 Q -0.8026689983896843 3.1145467902004484 -0.8228300218508547 3.1275345214145616 Q -0.8291899725017048 3.131894395326928 -0.8378393445706671 3.1311592711430376 Q -0.8648686322861744 3.1288620080683796 -0.8685261069277936 3.079002498134505 Q -0.872183581569413 3.0291429882006313 -0.8902663108797834 3.011271386157573 L -1.4600161505481948 2.69985840549076 Q -1.4995385289849985 2.6779866499707343 -1.517995656942649 2.65491056536949 Q -1.5364527849002994 2.631834480768246 -1.5339717407796687 2.602642850035498 Q -1.5314906966590378 2.57345121930275 -1.5087254715046379 2.5522452173120556 Q -1.485960246350238 2.5310392153213614 -1.429788188890538 2.510766796772411 L -0.8297564014932882 2.299319947731112 Q -0.8233964508424381 2.294960073818745 -0.8114957225910691 2.2638465837598303 Q -0.7792315907924032 2.1789257593445823 -0.7570675748656873 2.180809515065802 Q -0.7403094164820728 2.18223381817209 -0.7357980336745571 2.2060303487453443 Q -0.7291917678785095 2.243617194745311 -0.7326376624904967 2.284161126318572 Q -0.7360835571024839 2.324705057891833 -0.736405173932936 2.3284891581720037 Q -0.7367267907633882 2.332273258452175 -0.7379213675622104 2.3463284880642385 L -0.740356466421348 2.3749795330426764 Q -0.7450428830936506 2.4301192799823115 -0.7527987855282382 2.4477005322445295 Q -0.7605546879628258 2.4652817845067485 -0.7661550839355077 2.473517649222272 Q -0.7779424068966749 2.4904840191461366 -0.7993009228837294 2.491935668473764 Q -0.8067772329210852 2.4902112633042397 -0.8108844078952393 2.480878091004684 Q -0.8149915828693934 2.471544918705128 -0.8148024231316169 2.46611608853128 Q -0.8146132633938403 2.460687258357432 -0.81556881436512 2.4527109291354554 Q -0.8165243653363995 2.444734599913479 -0.817485294999483 2.44002475784811 Q -0.8184462246625664 2.4353149157827407 -0.820057224541889 2.4286441056850463 Q -0.8239117005778308 2.4163377117367846 -0.832020486892483 2.4156485328143873 L -1.4375500223558204 2.627717100749375 Q -1.314647443627321 2.6871669550881814 -1.0314118749949883 2.839739415357656 L -0.9418770198656305 2.8881859319077408 Q -0.8798905234388744 2.9212232914952447 -0.8739440801414629 2.9217286893716694 Q -0.8636729508095701 2.9226016493400397 -0.8577348019310242 2.900782222874522 Q -0.8517966530524786 2.878962796409005 -0.8455882112967777 2.857166342574234 Q -0.839379769541077 2.835369888739464 -0.828568054454874 2.836288793969327 Q -0.783699436847132 2.8401022506732594 -0.7890936314819857 2.9420080440525256 Q -0.7899773488339636 2.9588121476976332 -0.7920908308626491 2.9836790923959002 M -1.2629003755896258 3.9076443993056382 Q -1.2571126561404145 3.949564451096664 -1.3108563122827552 3.9569846042366787 Q -1.3645999684250962 3.964404757376693 -1.413827821976581 3.9251962087291385 Q -1.4630556755280661 3.885987660081584 -1.4706242317308809 3.8311691308163964 L -1.5249418508806984 3.421883101447582 Q -1.5351816622139185 3.3477168559711514 -1.5342392644771603 3.326774855917261 Q -1.52881501766788 3.2827591354054086 -1.4957165554538294 3.2765463307743294 Q -1.47690627580401 3.2739492771753245 -1.4670236426159895 3.309827149569515 Q -1.4619620108040676 3.3266541118780633 -1.458458611151549 3.33219490639672 Q -1.4469657664441689 3.3519677077898304 -1.4174067555658814 3.3478866235628226 L -0.8934061081780581 3.27554013044768 Q -0.8547106757555727 3.2701976201868694 -0.8549014249963497 3.2291478627661125 Q -0.854865373313105 3.2214753478433846 -0.8549496368477715 3.2149148068092033 Q -0.8550339003824381 3.2083542657750224 -0.8548213577915043 3.203943470986535 Q -0.8546088152005703 3.1995326761980474 -0.8537565466719239 3.1977719634509767 Q -0.8529042781432775 3.1960112507039065 -0.8513571570695962 3.1933330808176006 Q -0.8498100359959149 3.1906549109312947 -0.8472712562515983 3.189209030151447 Q -0.8405813870786946 3.1860946639975514 -0.8292952192888029 3.1845364318381484 Q -0.8180090514989113 3.1829781996787454 -0.806916351375876 3.1899357380499054 Q -0.7958236512528407 3.196893276421066 -0.7891677355982711 3.2173338915967777 Q -0.7806207299754532 3.2435379058853466 -0.7703809186422331 3.317704151361777 L -0.7085710429859114 3.765388807027476 Q -0.7029317265995003 3.806233985695655 -0.7317275490747981 3.8356768776858523 Q -0.7605233715500958 3.86511976967605 -0.8067429158325089 3.871501101376462 Q -0.8862835269231732 3.882482928023684 -0.8939262846573883 3.827126962197073 Q -0.8986751826669976 3.7927310222659747 -0.8787269394486532 3.776558664489395 Q -0.8587786962303088 3.7603863067128156 -0.8235766014570756 3.7555261064061063 Q -0.7883745066838422 3.7506659060993965 -0.7754018276782804 3.7494225059072166 L -0.8255620629047791 3.3861153903849925 L -1.0937429070550597 3.4231419545536657 L -1.0619104500843972 3.6537022394043075 Q -1.0576289834346322 3.6569448846144703 -1.038094714312434 3.6635584540910635 Q -0.9846998436556502 3.6813797934963266 -0.9831416114962471 3.692665961286218 Q -0.9747568384480306 3.7533962927270634 -1.077944658241325 3.7676429867558916 Q -1.1220144562780445 3.7737275123307032 -1.1557356676706407 3.765512744255562 Q -1.189456879063237 3.7572979761804204 -1.1932411571646444 3.7298887115478268 Q -1.1952445985124482 3.7153779243893945 -1.1857943940834828 3.704488753936482 Q -1.1763441896545173 3.6935995834835698 -1.1535322727213666 3.68031793818423 Q -1.1307203557882157 3.66703629288489 -1.1237898561794892 3.661697978953901 L -1.1555481116187518 3.431675130664682 L -1.4463012913488158 3.471818159152161 L -1.3988865127841223 3.815240121901719 Q -1.3878770271132983 3.823578352442138 -1.3524963432674655 3.8378623386765485 Q -1.3171156594216324 3.852146324910959 -1.2915291488993321 3.8688779125991184 Q -1.2659426383770318 3.8856095002872784 -1.2629003755896258 3.9076443993056382 M -0.5728180060622559 4.655866144520275 Q -0.5945136115914778 4.67227818015547 -0.6273341151397671 4.684417325926717 Q -0.6601546186880565 4.6965564716979635 -0.6952963130181791 4.695381997424192 Q -0.7304380073483018 4.694207523150421 -0.7589891260338563 4.681918603140333 Q -0.7875402447194109 4.669629683130245 -0.814871543638533 4.647345087963531 Q -0.8637137806381264 4.607564611152285 -0.9034247219131017 4.5424255017904205 L -0.9302749649421247 4.582436116984852 Q -0.9410791903949031 4.598579772827956 -0.9599343078432879 4.625799538917143 Q -0.9787894252916727 4.653019305006328 -0.9894333301415282 4.668814436436103 Q -1.0000772349913838 4.684609567865878 -1.0151717812328427 4.708703066517847 Q -1.0302663274743016 4.732796565169815 -1.0398088926691997 4.750787397267524 Q -1.0633063289603641 4.7936071123340955 -1.075713729081927 4.834349606844209 Q -1.0881211292034898 4.875092101354323 -1.0623372071777402 4.944803868580921 Q -1.0677881076771158 4.956653698634133 -1.0794915430509242 4.960982386273492 Q -1.1196902993348756 4.97585048729564 -1.1510262337676296 4.89112779208959 Q -1.1823621682003838 4.806405096883541 -1.1694877635540162 4.753631547151791 L -1.1692995597436093 4.754140392168043 Q -1.138998997151642 4.667155683515012 -1.0090484923570715 4.519597325199762 L -0.9473249661504594 4.4487562096689475 L -0.9994574216331793 4.307806140166991 L -1.2269111438980682 4.391933243418889 Q -1.236070354190614 4.395320912006214 -1.234780779364806 4.419139052224112 Q -1.233491204538998 4.442957192442009 -1.2314383621888112 4.4664930269442955 Q -1.2293855198386245 4.490028861446582 -1.2370181950824128 4.492851918602686 Q -1.2538100806187469 4.499062644346115 -1.2667438194021825 4.49459109838901 Q -1.279677558185618 4.490119552431904 -1.2916528783527295 4.470253692232552 Q -1.3063954892609766 4.444469895648576 -1.3219223036195484 4.4024901818077415 Q -1.3374491179781203 4.360510467966907 -1.3431614509880476 4.345848064400786 Q -1.3488737839979748 4.331185660834666 -1.3542654758020565 4.3158262084418855 Q -1.3596571676061382 4.300466756049106 -1.363881301057543 4.286700057402803 Q -1.3681054345089478 4.2729333587565 -1.3695413726537147 4.26044922493358 Q -1.3709773107984817 4.247965091110659 -1.3695971704291265 4.237620891540703 Q -1.3673457347066689 4.2171206962111984 -1.3510626941865873 4.2110981742781775 Q -1.3347796536665057 4.205075652345156 -1.3240346369090212 4.216141278948042 Q -1.313289620151537 4.227206905550928 -1.3067582532022626 4.243301742260603 Q -1.2894225980793226 4.2854801121945965 -1.2690687974292207 4.277951959778319 L -0.7286753901690147 4.078079513126158 Q -0.7164631097789536 4.073562621676392 -0.7192792196535193 4.050309092889716 Q -0.7220953295280849 4.02705556410304 -0.7256747069270293 4.004084341031973 Q -0.7292540843259737 3.9811131179609074 -0.7188227614927966 3.9772549398475654 Q -0.7083914386596193 3.9733967617342234 -0.6979635894672113 3.977349010392325 Q -0.6875357402748031 3.981301259050427 -0.6776202097394168 3.99325213829038 Q -0.6677046792040304 4.0052030175303335 -0.6593819024151212 4.018321455122963 Q -0.6510591256262118 4.031439892715593 -0.6421368755566156 4.052434975777386 Q -0.6289974706775965 4.081704016494658 -0.6131883506034143 4.124446997859873 L -0.5806290914030152 4.212477185671563 Q -0.5324489159388408 4.342741509832216 -0.5227563883424403 4.390060622702933 Q -0.5130638607460398 4.437379735573651 -0.5092718699699734 4.469527599861996 Q -0.5054798791939071 4.501675464150341 -0.5074315782760214 4.526113982214427 Q -0.5093832773581357 4.550552500278513 -0.5164513098102594 4.576015687017086 Q -0.5235193422623834 4.601478873755659 -0.5373208713977087 4.62046649132037 Q -0.5511224005330341 4.639454108885081 -0.5728180060622559 4.655866144520275 M -0.6862174355095343 4.576043821108119 Q -0.6505982843718559 4.562869554379634 -0.6277874132641563 4.538525106860307 Q -0.6049765421564568 4.5141806593409814 -0.5969744692942803 4.485768956692848 Q -0.5889723964321038 4.457357254044713 -0.5917257926101628 4.420197610574314 Q -0.5956363262185911 4.358013933043105 -0.6209497387183234 4.2895742783571364 Q -0.6462631512180556 4.221134623671169 -0.6671537114523377 4.206880015934559 Q -0.6880442716866199 4.19262540819795 -0.732822633116844 4.20918734351376 L -0.9378871746666209 4.285033479107753 L -0.8870721458567495 4.422421633495941 Q -0.8129198445564187 4.6229065698994445 -0.6862174355095343 4.576043821108119 M -0.2511350389859659 5.043851847758373 Q -0.2863246239539923 4.987791986121454 -0.32093115620952684 4.965316053875794 Q -0.3839259076924171 4.92414763880935 -0.4275790786391981 4.9515493648090425 Q -0.4510139388316804 4.966259765082562 -0.4564344132991788 4.988238646529377 Q -0.47144466534878837 5.0469842672544 -0.4611221582230848 5.120575246457878 Q -0.45465294971010384 5.164556770447335 -0.43744472796564493 5.2450353663620755 Q -0.420236506221186 5.3255139622768155 -0.41638320760846315 5.355123417490836 Q -0.41252990899574027 5.3847328727048565 -0.4127116723425124 5.424241686675542 Q -0.4128934356892846 5.463750500646226 -0.42065516347641196 5.494245230434209 Q -0.43937521157803694 5.567490269769576 -0.4991111297157371 5.604987368505998 Q -0.5418452865373227 5.631812216063592 -0.5908744968951443 5.630240050981113 Q -0.6399037072529659 5.6286678858986345 -0.6848104196380114 5.603049057587651 Q -0.7779040687637403 5.550667622536893 -0.841649136615657 5.449116561702803 Q -0.9276040244883772 5.31218345704869 -0.9343303027565529 5.195338943228588 Q -0.9364192264917457 5.156294625548204 -0.9226839068908483 5.12205018588658 Q -0.908948587289951 5.087805746224955 -0.8802293958775951 5.069778294909368 Q -0.8515102044652393 5.051750843593781 -0.8240072598118452 5.058828300014715 Q -0.7965043151584511 5.065905756435649 -0.7761693500744686 5.098301004348786 Q -0.7558343849904863 5.130696252261924 -0.766956881826322 5.162980303065953 Q -0.7780793786621579 5.195264353869983 -0.8143804366073757 5.218051052332885 Q -0.8286251555479043 5.226992668185416 -0.8468980451277176 5.234619437767608 Q -0.8388968344108294 5.326962770524311 -0.7889968491692838 5.406457492353712 Q -0.7448656483487262 5.476762072931159 -0.6925768875958974 5.513120631523438 Q -0.6327449890891438 5.554352721507336 -0.5725495638888458 5.516567183549865 Q -0.5095970963129618 5.477051010266098 -0.5403812013077386 5.320859956904143 Q -0.54583778541185 5.2948191652668095 -0.5583642175668683 5.241187992962801 Q -0.5836518246359068 5.131510741662294 -0.5883129402647169 5.071020702970554 Q -0.5995867669672155 4.92244026646499 -0.5109019038858605 4.866771496802457 Q -0.46908676118947035 4.840523527686962 -0.42232823791361374 4.842560189059742 Q -0.375569714637757 4.844596850432522 -0.33307790894520106 4.8704504215025075 Q -0.2475174191179902 4.923076577767675 -0.18348391204502412 5.025087145664362 Q -0.10820127535113166 5.145018489002361 -0.10173967520817806 5.244093338311886 Q -0.09983179776994056 5.278767349669889 -0.11233780502127266 5.309357591834052 Q -0.12484381227260499 5.339947833998216 -0.1535630036849609 5.3579752853138025 Q -0.1822821950973168 5.37600273662939 -0.2134393372481722 5.367695967858891 Q -0.2445964793990275 5.359389199088392 -0.26305658954618893 5.329980747082139 Q -0.28151669969335025 5.300572295075887 -0.2874128339492461 5.28505644787166 Q -0.21028930080569408 5.228317553153196 -0.20331044389613728 5.1797378714025655 Q -0.1963315869865805 5.131158189651934 -0.2511350389859659 5.043851847758373 M -0.4630003897310264 5.944003900022716 Q -0.5400069667634028 5.853521768792884 -0.502822529271691 5.8218752302864285 Q -0.48836191469158086 5.8095682430894735 -0.460732752959754 5.834498497565899 Q -0.44741484829680783 5.845961489868149 -0.44148113595203475 5.8487481134223325 Q -0.4211570692673773 5.859235318378705 -0.39843324635577565 5.839895767069203 L 0.004398159804435364 5.497058266582596 Q 0.034145709797804735 5.471741035777431 0.011905198541503736 5.4372377224780655 Q 0.007808724495870889 5.430750220234767 0.004208926653205269 5.425264852927431 Q 0.0006091288105396497 5.419779485620095 -0.0015841562096168271 5.415946759979057 Q -0.003777441229773193 5.41211403433802 -0.004006005013505898 5.410171296677042 Q -0.004234568797238603 5.408228559016063 -0.004370834264550538 5.405138638421782 Q -0.004507099731862252 5.402048717827501 -0.0031445540602439426 5.399464255966215 Q 0.0008200185327162934 5.393240447626763 0.006397684156473127 5.388493466850794 Q 0.01197534978022985 5.383746486074826 0.01851560170444755 5.381386169481884 Q 0.025055853628665248 5.379025852888942 0.03281802174255033 5.380612543828904 Q 0.0405801898564353 5.382199234768866 0.04675124851496926 5.384427649909135 Q 0.052922307173503325 5.386656065049404 0.06192837505250104 5.394308315286063 Q 0.07093444293149875 5.40196056552272 0.07706595295453089 5.407072321048983 Q 0.08319746297756303 5.4121840765752465 0.09415946956295629 5.424227260866856 Q 0.10512147614834955 5.436270445158467 0.11109915564401351 5.443294172240234 Q 0.12235125822408677 5.456515305570621 0.13360336080416002 5.469736438901007 Q 0.14485546338423327 5.482957572231394 0.1518572613913054 5.491603174873986 Q 0.15885905939837752 5.500248777516578 0.16822995652841977 5.512933686008496 Q 0.177600853658462 5.525618594500413 0.18304230831565682 5.534523527032212 Q 0.18848376297285152 5.54342845956401 0.19315164647781624 5.554772805959755 Q 0.19781952998278096 5.566117152355499 0.1983206247011372 5.57423973120504 Q 0.1998414739162625 5.593605575603876 0.18806640204388714 5.603626979464253 Q 0.17629133017151177 5.613648383324631 0.16592271662089564 5.608580594949259 Q 0.15555410307027973 5.603512806573887 0.14320756723782269 5.59193553237977 Q 0.13086103140536576 5.580358258185654 0.12492731906059262 5.57757163463147 Q 0.103776931542786 5.567787686086353 0.08105310863118431 5.587127237395854 L -0.3217782975290266 5.929964737882461 Q -0.3399573558583079 5.9454363789300615 -0.3393375607326962 5.9616507705236685 Q -0.33871776560708455 5.9778651621172765 -0.32838428217658144 5.99293673479222 Q -0.3180507987460782 6.008008307467164 -0.31577399793952904 6.013194796249792 Q -0.3087589988870397 6.026459896731069 -0.31970774992626594 6.035778044180192 Q -0.3306565009654922 6.045096191629315 -0.3400185610647564 6.0466521709645535 Q -0.3493806211640207 6.048208150299791 -0.3606898374396522 6.0428722495051845 Q -0.37199905371528375 6.037536348710578 -0.3809523719133624 6.031620255926611 Q -0.38990569011144105 6.0257041631426445 -0.4033906263471726 6.011533644557214 Q -0.42361803070077 5.990277866679069 -0.4630003897310264 5.944003900022716 M -0.01609346701357811 6.404540082546238 Q -0.11430081873649675 6.317400690302898 -0.08189360674517179 6.280877295034044 Q -0.07289160341424819 6.270731907459362 -0.053146751289505884 6.2828116567829095 Q -0.033401899164763604 6.294891406106457 -0.013477006973402844 6.30676824767851 Q 0.006447885217957916 6.3186450892505635 0.01580996868211848 6.308093886172895 L 0.4144186761754154 5.85885612436599 L 0.2951546536669092 5.753758460830553 Q 0.27526969402053314 5.736114534301942 0.21886527136024803 5.766576809737432 Q 0.16246084869996297 5.797039085172923 0.1433875200595614 5.780115318910787 Q 0.1117339108265546 5.752029068518305 0.14486128308435342 5.714694042243476 Q 0.19095154013868226 5.662749657861106 0.23182968311241126 5.6522380437142345 Q 0.2727078260861402 5.641726429567363 0.31897079342668866 5.6827755647563745 L 0.5551554161652781 5.892342202300276 Q 0.6837989306122417 6.006487604536387 0.7143265640757874 6.035025405801607 Q 0.7543251602172911 6.0741427370399474 0.7040228207779167 6.152087640508957 Q 0.6917401637028758 6.171652452567081 0.6755365577072134 6.189914150201507 Q 0.6445696662488363 6.224814283458413 0.6129160570158294 6.196728033065931 Q 0.5922194663634788 6.178363946270847 0.6183906340512124 6.121075700909204 Q 0.6282383981083296 6.0993504080516585 0.6309215906333098 6.076707850000911 Q 0.6336047831582899 6.054065291950163 0.6210245025656846 6.042902807819818 L 0.5024806403236524 5.936993513278407 L 0.1038719328303554 6.386231275085311 Q 0.09342960896648406 6.397999924671942 0.12290567253995965 6.434671100857016 Q 0.1523817361134353 6.4713422770420905 0.14373981291574867 6.481081849113784 Q 0.1311370082524556 6.495285391718339 0.11935419521809815 6.494259590925527 Q 0.1075713821837408 6.493233790132715 0.10018103521523497 6.491753537054782 Q 0.09279068824672915 6.49027328397685 0.08221951889656781 6.483794742990968 Q 0.07164834954640659 6.477316202005086 0.06425510116551797 6.472569458630763 Q 0.056861852784629296 6.46782271525644 0.044733123064761626 6.457786206895555 Q 0.0326043933448939 6.447749698534672 0.026111345297097632 6.4419884164028804 Q 0.005008939141759761 6.423264249474559 -0.01609346701357811 6.404540082546238 M 1.2653950642104523 6.474670254015424 Q 1.1966512933763058 6.434237942148956 1.2065530840374818 6.417402732965083 Q 1.2208556705480693 6.393085208588379 1.2623923912155335 6.39737406004389 Q 1.3039291118829976 6.4016629114994 1.3469524242417832 6.426967487633517 Q 1.4652665332284436 6.496555072002337 1.4418873052784447 6.536304871464258 Q 1.4286849177302101 6.558751817042755 1.3659115906239414 6.541343032820634 Q 1.3408242878169017 6.534770125847752 1.334222492637264 6.535293141338734 L 0.9136407675963327 6.704598564742176 L 0.8074715677292792 6.885109418769255 Q 0.802245622658103 6.893994668060743 0.818586103152229 6.911158493560072 Q 0.8349265836463551 6.928322319059402 0.8515421138810694 6.945018499859179 Q 0.8681576441157837 6.9617146806589565 0.8634817985257839 6.969664640551341 Q 0.8469788140904906 6.997723322524462 0.8032134086970852 6.983311798647576 Q 0.7654172442205167 6.970522887818504 0.7150765262321477 6.938396837555592 Q 0.637447506106513 6.892738580617947 0.6134456574556881 6.866662722539695 Q 0.5894438088048632 6.840586864461443 0.6030037008753106 6.8164619350437015 Q 0.6126304417958983 6.800094370559381 0.6542231346603129 6.821410424752208 Q 0.6958158275247275 6.842726478945035 0.7059926679264916 6.82542362506161 L 0.8121618677935452 6.644912771034532 L 0.7986212414415272 6.522394670996067 Q 0.7740160378083056 6.283850125921435 0.7622105703035231 6.200117647739031 Q 0.7613023648946136 6.192030463679113 0.7424861360324333 6.173725211826619 Q 0.7236699071702531 6.1554199599741235 0.70959873738736 6.137073180028057 Q 0.695527567604467 6.118726400081989 0.7029539106003488 6.106099993194086 Q 0.7282584867344652 6.0630766808353 0.8442343722233654 6.131289016501179 L 0.8755665670933505 6.149717349120589 Q 0.9971541889768748 6.221230281673527 0.9652484190686411 6.275477066821561 Q 0.9597474242568768 6.284829960812601 0.9115529362128245 6.264036922110757 Q 0.9070690841762681 6.262029119145015 0.9049234556374718 6.261396564882213 L 0.885777708351554 6.253282898237622 L 0.8828346159867081 6.257216650793001 L 0.9240059931184179 6.6131352042110265 L 1.2302687465747026 6.490516607225325 Q 1.251421695420842 6.483445964535094 1.2653950642104523 6.474670254015424 M 1.5814140938653782 7.334418122367789 Q 1.4685970196765337 7.297144314545076 1.4839150228913474 7.250781133371579 Q 1.4898720241415526 7.232751007359663 1.526433783571899 7.239688291671283 Q 1.5437694703899656 7.242558960526911 1.550287081600883 7.241855428632417 Q 1.5731009940142544 7.24025088670577 1.5824619959788626 7.211917831544187 L 1.748407030806011 6.709650035497961 Q 1.7606614333778619 6.672559490559163 1.7237274494238153 6.654643023305319 Q 1.7168557990904891 6.6512299298902695 1.71092934165427 6.648414809775403 Q 1.7050028842180502 6.645599689660536 1.7011370126117642 6.64346536968855 Q 1.6972711410054777 6.641331049716563 1.6960661017044683 6.639790156694437 Q 1.6948610624034586 6.638249263672309 1.6931386034698042 6.635680350910377 Q 1.69141614453615 6.633111438148445 1.691236851799784 6.630195305789588 Q 1.6913888664342127 6.622817601699424 1.6936865669164347 6.6158631245234 Q 1.695984267398657 6.608908647347375 1.7003448268859735 6.603492790018316 Q 1.7047053863732904 6.598076932689257 1.7121613709558297 6.595397914982689 Q 1.7196173555383691 6.592718897276121 1.726047593556265 6.591415118906283 Q 1.7324778315741605 6.590111340536445 1.7441491805350722 6.591967628703236 Q 1.7558205294959839 6.5938239168700274 1.763715653218792 6.595003951244261 Q 1.7716107769416005 6.596183985618495 1.78723537070182 6.600774840232617 Q 1.8028599644620393 6.605365694846738 1.8116174542392556 6.608259095453981 Q 1.8281021408787215 6.613705496597026 1.8445868275181874 6.61915189774007 Q 1.8610715141576533 6.624598298883115 1.871546916518201 6.62834497284412 Q 1.8820223188787488 6.632091646805125 1.8966211660743246 6.6380577407559755 Q 1.9112200132699002 6.644023834706827 1.9204971958549226 6.64880307475796 Q 1.929774378439945 6.653582314809093 1.939658627025795 6.660847640779459 Q 1.949542875611645 6.668112966749826 1.9541928327799636 6.674791685295817 Q 1.9655578792968562 6.690545561938851 1.960707178278832 6.705227235977125 Q 1.9558564772608076 6.719908910015399 1.9443644210362616 6.7209687542074645 Q 1.9328723648117159 6.72202859839953 1.916307124504713 6.718555409893397 Q 1.8997418841977098 6.715082221387264 1.8932242729867925 6.715785753281758 Q 1.8700699605019808 6.718420588123372 1.8607089585373724 6.746753643284954 L 1.694763923710224 7.24902143933118 Q 1.6872751221385374 7.271687883460446 1.6962323632285723 7.285217793763311 Q 1.7051896043186072 7.298747704066176 1.7218513105192776 7.306252417863992 Q 1.7385130167199478 7.313757131661809 1.7431538811876206 7.31700457139146 Q 1.756041635325349 7.324690851100804 1.751531334378765 7.338342232224112 Q 1.747021033432181 7.35199361334742 1.739831714779029 7.358189009888188 Q 1.7326423961258768 7.3643844064289565 1.7202074201793858 7.365704097024925 Q 1.707772444232895 7.367023787620893 1.6970485613442512 7.366623292458368 Q 1.6863246784556076 7.366222797295843 1.6674390059147681 7.361125888924884 Q 1.6391104971035089 7.353480526368446 1.5814140938653782 7.334418122367789 M 2.779355642204066 7.532684495673645 Q 2.771078538386512 7.5917865349166025 2.7361546061065827 7.586895519024411 Q 2.7092900428143296 7.583133199107341 2.6764742907441144 7.5358067396908455 Q 2.5781128474092645 7.39712635543477 2.2454748043513013 6.9128255168370005 L 2.1785055098274553 7.391014743439108 Q 2.1772263210556515 7.400148694958474 2.19847574225017 7.412711640841101 Q 2.219725163444688 7.425274586723728 2.2409745846392064 7.437837532606356 Q 2.2622240058337244 7.450400478488984 2.2609448170619206 7.4595344300083495 Q 2.2586121787133373 7.476190459249547 2.2438736515736917 7.487548181702557 Q 2.2291351244340456 7.498905904155567 2.20827714441934 7.5031065738729215 Q 2.1239211346255105 7.518684177413965 2.0259849125011806 7.478672627366877 Q 1.9726003184760152 7.456952675425741 1.9779428127582548 7.418804995550742 Q 1.9797487263184483 7.40591000517046 2.0040238531628054 7.40273572830817 Q 2.0282989800071625 7.39956145144588 2.052418330816109 7.395543614485653 Q 2.0765376816250556 7.391525777525424 2.0785693343802736 7.377018913347607 L 2.156900835053671 6.817698705602895 Q 2.1583305166221574 6.807490171551839 2.113547866089241 6.788892304613794 Q 2.0687652155563243 6.77029443767575 2.0701948971248108 6.760085903624693 Q 2.0716245786932976 6.749877369573637 2.076820582361427 6.742113702940599 Q 2.0820165860295567 6.734350036307561 2.091865378333166 6.730524958053836 Q 2.1017141706367757 6.726699879800112 2.11129960054619 6.724755320976846 Q 2.1208850304556046 6.722810762153579 2.136616969961794 6.7239183251737895 Q 2.1589468974548076 6.724854262442407 2.1933335384688917 6.729670031936257 L 2.2003183249248774 6.730648235114694 Q 2.2594203641678345 6.7389253389322485 2.2721213147854575 6.753851982067748 L 2.272196561183799 6.753314690801902 L 2.7005742711682728 7.371546105138939 L 2.710431549350996 7.3011609493132354 L 2.710420982873541 7.297324664053979 L 2.7640716648909587 6.914235991506448 Q 2.765049868069397 6.907251205050462 2.7212507039536464 6.88358669428606 Q 2.6774515398378957 6.8599221835216575 2.6785802358130164 6.851862814533981 Q 2.6815148453483313 6.830908455166024 2.7058764255965624 6.817337528256824 Q 2.752837219498806 6.791044517775091 2.815700297602679 6.799848346381035 Q 2.9704401821660573 6.8215193091033575 2.9606581503816756 6.891367173663216 Q 2.959679947203237 6.898351960119202 2.912601640992831 6.909837120829753 Q 2.865523334782424 6.921322281540304 2.864545131603986 6.92830706799629 L 2.779355642204066 7.532684495673645 M 4.067869437014429 6.696112777641458 Q 4.074394309395931 6.700507302712252 4.076847979290128 6.7116331813245 Q 4.079301649184324 6.722759059936749 4.068662303278238 6.733716791413105 Q 4.0580229573721525 6.744674522889461 4.041069237582059 6.7484134484425224 Q 3.9870051517258878 6.775337023256995 3.977094056048114 6.790856507264361 L 3.972698611301645 6.816271017599337 L 4.315742129258621 7.311189222805193 Q 4.377249895711554 6.899835192453762 4.408650424104994 6.6945711395979535 Q 4.4054957056695985 6.680266438525062 4.38304550196023 6.680495184358912 Q 4.3605952982508605 6.680723930192761 4.3384371981003245 6.682277185385211 Q 4.3162790979497885 6.683830440577662 4.313591745208525 6.671644954478532 Q 4.309502295384865 6.653101823458117 4.3191404545158365 6.6426426767005475 Q 4.328778613646808 6.632183529942979 4.3396164060377656 6.625904392421166 Q 4.350454198428723 6.619625254899353 4.3606997490269315 6.615699015198369 Q 4.370945299625141 6.611772775497385 4.386605729081287 6.607207925304508 Q 4.410096373265507 6.600360650015196 4.436321658565808 6.594576999550304 Q 4.4625469438661085 6.588793349085412 4.475850458163886 6.586137215368804 Q 4.489153972461663 6.583481081652194 4.508667071232539 6.580011075308395 Q 4.528180170003414 6.576541068964595 4.541156344380163 6.576179412357048 Q 4.554132518756912 6.5758177557495 4.5670190533972415 6.57630922546888 Q 4.593321926421339 6.577175323484107 4.596651906992034 6.592274730172159 Q 4.599981887562729 6.60737413686021 4.58993076611185 6.618479928784754 Q 4.579879644660972 6.629585720709297 4.5634557286143185 6.6332078048388246 Q 4.505566175130531 6.66041946587459 4.496948369786704 6.67676487452177 L 4.391300681072514 7.311192901507895 Q 4.385479035218401 7.345255516535676 4.368278660892941 7.374327347362375 Q 4.351078286567482 7.403399178189074 4.318230454474175 7.41064334644813 Q 4.285382622380869 7.417887514707186 4.258137902969099 7.398895265328993 Q 4.230893183557329 7.3799030159508 4.201655044946089 7.338016381518677 L 3.9466140290441256 6.972583547236807 L 3.8710334050140163 7.42593117941746 Q 3.856771393937565 7.512412226345513 3.7990227859025585 7.525147941510628 Q 3.75081064524948 7.535780511052146 3.7084059204517015 7.4845750227349965 Q 3.697950791031673 7.47243590533501 3.683506983861353 7.452287293734109 L 3.3216643873629996 6.937625404572177 Q 3.3062073414049413 6.925478252497108 3.267543720146414 6.926504801607983 Q 3.2288800988878865 6.9275313507188585 3.2113230049680968 6.92223641094632 Q 3.193765911048307 6.916941471173781 3.1913706618658773 6.906080494433253 Q 3.1889754126834475 6.895219517692724 3.1935179982024273 6.8881064208560145 Q 3.198060583721407 6.880993324019305 3.210074825022778 6.875010307393866 Q 3.2220890663241497 6.869027290768428 3.233012481113986 6.864395985188703 Q 3.2439358959038227 6.859764679608979 3.2638347553074927 6.854265098027838 Q 3.2964489045537326 6.845961322281901 3.312872820600386 6.842339238152373 L 3.3314159516208006 6.838249788328712 Q 3.4071778869327813 6.82154146476347 3.429215128322243 6.821959364096594 Q 3.451252369711705 6.822377263429718 3.465019232366074 6.824341302955887 Q 3.492669799098344 6.828799185751663 3.499813195284032 6.851113381025469 Q 3.5002725263030823 6.85823451253726 3.4834276132614392 6.867505158371792 Q 3.4665827002197966 6.876775804206324 3.4506493342168474 6.886400991648996 Q 3.4347159682138986 6.896026179091669 3.436702272413962 6.905032842730156 L 3.797064264430445 7.425576976444158 L 3.8798018373753784 6.876203795278441 L 3.8432249537554446 6.823713051302427 Q 3.8324112653897346 6.8149864392101485 3.8167900896333244 6.813431344666347 Q 3.8011689138769142 6.811876250122545 3.79499054842847 6.811572094551089 Q 3.7671607022233586 6.808820464409167 3.750799224226013 6.8102064921414 Q 3.734437746228668 6.811592519873633 3.72514701370643 6.807252398177066 Q 3.7158562811841924 6.802912276480498 3.7118252520722983 6.784634047331803 Q 3.707794222960404 6.766355818183109 3.7482738232969126 6.752150630873071 Q 3.788753423633421 6.737945443563034 3.8544490878200337 6.723457107044922 Q 3.9201447520066464 6.70896877052681 3.938481401867108 6.705202643286636 Q 3.956818051727569 6.701436516046463 3.9818940898045687 6.696739674755564 Q 4.006970127881568 6.692042833464667 4.020152783418271 6.691357854273632 Q 4.033335438954974 6.690672875082598 4.04734000179395 6.691195563826632 Q 4.061344564632926 6.6917182525706655 4.067869437014429 6.696112777641458 M 5.107569396903051 6.96769957871179 Q 5.196298270165568 6.966212438478408 5.275752986105591 6.921001439658779 Q 5.355207702045614 6.8757904408391495 5.401331688645552 6.804913672137486 Q 5.447455675245491 6.734036903435824 5.451846874508873 6.650702193547027 Q 5.456238073772256 6.567367483658231 5.409685502287355 6.4855550610137565 Q 5.363132930802456 6.403742638369282 5.286365877155754 6.358785559673296 Q 5.209598823509053 6.31382848097731 5.1208659684304445 6.317502644969918 Q 5.032133113351836 6.321176808962525 4.947962984002911 6.369070953112695 Q 4.863792854653984 6.4169650972628665 4.819587577280216 6.4873743064397305 Q 4.775382299906448 6.5577835156165944 4.77509683362846 6.640654647796682 Q 4.774811367350472 6.72352577997677 4.820156523436629 6.8032162665872375 Q 4.865501679522785 6.882906753197706 4.94217110158166 6.92604673607144 Q 5.018840523640534 6.969186718945173 5.107569396903051 6.96769957871179 M 4.7345977289632195 6.893098877824865 Q 4.69864358153396 6.82991233814556 4.684909001219582 6.759700460145991 Q 4.671174420905204 6.689488582146423 4.682294081909276 6.625109175664977 Q 4.693413742913349 6.56072976918353 4.724745283184369 6.501703329247133 Q 4.788351446408189 6.38311382030823 4.9250984352663885 6.3053026057225185 Q 5.052886138647672 6.232589367264836 5.179944707122714 6.227706409205724 Q 5.31743430919038 6.222505976152704 5.411511632035167 6.2956904475768924 Q 5.462448817819028 6.334745985213448 5.497061392583017 6.395574818188302 Q 5.559846993317695 6.505915491956642 5.555603275436874 6.619128678600638 Q 5.551359557556053 6.732341865244633 5.486719954360926 6.827174971227729 Q 5.4220803511658 6.922008077210824 5.308438888011227 6.986671879676881 Q 5.179236560607274 7.060190061733726 5.050161651318233 7.0637234834953855 Q 4.834947364325482 7.069455339317853 4.7345977289632195 6.893098877824865 M 5.988582004648842 5.660279842178098 Q 6.012199830436565 5.673779935438194 6.036260614534122 5.699189047619252 Q 6.060321398631679 5.72459815980031 6.073052000142027 5.757373910827499 Q 6.085782601652376 5.790149661854687 6.0857029521779085 5.821233059178213 Q 6.08562330270344 5.852316456501739 6.075872846782202 5.886206450477523 Q 6.058487963738017 5.946752435414549 6.014196237996125 6.008867694861859 L 6.0615396533207635 6.017833513527956 Q 6.080630414477839 6.021424021856668 6.113070075426907 6.0280647686107525 Q 6.145509736375975 6.034705515364836 6.164217009964999 6.038285571537863 Q 6.182924283554024 6.04186562771089 6.211011324326775 6.046276993050302 Q 6.239098365099527 6.050688358389714 6.2593918497391865 6.052392785345229 Q 6.308000701480525 6.05717159722982 6.350341116301457 6.052569020834516 Q 6.392681531122388 6.047966444439213 6.446651273274404 5.996860592945177 Q 6.4596898505881475 5.997215966238503 6.4682696650725475 6.006276579884462 Q 6.497739462649401 6.037397818059712 6.432148498647134 6.099508214218522 Q 6.366557534644867 6.1616186103773325 6.312970554482216 6.170519925074355 L 6.3133644942059535 6.17014688966199 Q 6.221470565860917 6.176469038518202 6.034714636833589 6.114964357572811 L 5.945316257083875 6.086047458791049 L 5.836194953608633 6.189378268016217 L 6.002941782935888 6.365469324526806 Q 6.009656420358463 6.372560239554079 6.031051349116179 6.362013968643325 Q 6.052446277873895 6.35146769773257 6.073281653513063 6.34033051723621 Q 6.0941170291522315 6.32919333673985 6.09971256033771 6.33510243259591 Q 6.112022728945762 6.348102443479242 6.112993883907087 6.361752834689963 Q 6.113965038868412 6.375403225900685 6.1004038537703655 6.394222231009923 Q 6.082488427399836 6.417911600791282 6.049988400191506 6.448687022311413 Q 6.017488372983175 6.479462443831545 6.006250638700975 6.490477440652005 Q 5.995012904418775 6.501492437472465 5.9830081950004725 6.512486529981553 Q 5.97100348558217 6.523480622490641 5.960004529784582 6.5327751513327135 Q 5.949005573986995 6.542069680174786 5.938090235434896 6.548296308472448 Q 5.927174896882797 6.554522936770111 5.917120602867976 6.557319081266684 Q 5.897385050250698 6.5633053099835665 5.88544791705501 6.550699238823971 Q 5.873510783859323 6.5380931676643765 5.879463309434294 6.5238639401199015 Q 5.8854158350092645 6.509634712575426 5.897648870756494 6.4973036396560016 Q 5.929620701313334 6.464786845846111 5.914699284818726 6.449029256896617 L 5.518535676886855 6.030665270287566 Q 5.50958282699009 6.021210716917869 5.489307004469469 6.0329388069998355 Q 5.469031181948848 6.044666897081801 5.449314912546776 6.0569858967493735 Q 5.429598643144703 6.069304896416946 5.421951417191217 6.061229132080331 Q 5.414304191237729 6.053153367743715 5.413840328616522 6.042011323958856 Q 5.413376465995316 6.030869280173997 5.420469002118754 6.0170548966646304 Q 5.427561538242192 6.003240513155265 5.436353638032646 5.990431883266615 Q 5.4451457378231005 5.977623253377964 5.460945135395338 5.96116788661115 Q 5.48269543744638 5.937583038386652 5.515786374240316 5.906248063747973 L 5.583937946446875 5.841712937408789 Q 5.6847865157236335 5.746215871843291 5.72448918947945 5.718706941825605 Q 5.764191863235267 5.691198011807919 5.792262862985145 5.675077114023059 Q 5.820333862735024 5.658956216238199 5.843573064243194 5.651146619082233 Q 5.8668122657513635 5.643337021926269 5.893004394091398 5.639829405264356 Q 5.919196522431432 5.636321788602444 5.942080350646275 5.641550768760222 Q 5.96496417886112 5.646779748918002 5.988582004648842 5.660279842178098 M 5.95974782759509 5.795925056422892 Q 5.933635348729525 5.768349275761278 5.902285058646661 5.756941064795768 Q 5.870934768563796 5.745532853830259 5.841664287523666 5.749340340814734 Q 5.812393806483536 5.753147827799209 5.779306111881932 5.770283310264304 Q 5.723662573662773 5.798317194741148 5.670677680820101 5.84849045770427 Q 5.617692787977429 5.898663720667393 5.612795034609272 5.92347543887818 Q 5.607897281241114 5.948287157088966 5.640724397529254 5.982953852777852 L 5.79105766871244 6.141711561443999 L 5.897421394121521 6.040992000105388 Q 6.052633645274032 5.894016047633489 5.95974782759509 5.795925056422892 M 6.737633246394661 5.702698237363066 L 6.706859829316702 5.749994273519268 Q 6.663024312427496 5.815969136614616 6.632784602008926 5.819326450622812 Q 6.619695183158585 5.820400067920999 6.608398117560067 5.812893986261889 Q 6.597101051961548 5.805387904602778 6.598362667461854 5.794175765029412 Q 6.599624282962158 5.782963625456047 6.607048474044904 5.767378228103274 Q 6.61447266512765 5.7517928307505 6.615816171204319 5.74486902293139 Q 6.62029553660948 5.72244170833587 6.595441992292739 5.705928328685827 L 6.154856433950518 5.413191143980518 Q 6.1218690024028435 5.391273385535915 6.095435453167622 5.423214518824496 Q 6.076062173865147 5.447470612057296 6.070945896541798 5.447328079046085 Q 6.058908846848127 5.447798174362755 6.050097135681283 5.4419434306686485 Q 6.041285424514438 5.436088686974542 6.036759009653061 5.4281959182995205 Q 6.032232594791683 5.420303149624498 6.033645849649564 5.409843135941438 Q 6.035059104507445 5.399383122258378 6.037377642337601 5.390501662310322 Q 6.039696180167758 5.3816202023622655 6.047499469644444 5.367915119735255 Q 6.059654768759021 5.346679671858828 6.068361823483589 5.333575075764547 L 6.077969608007251 5.319114831798443 L 6.111745457748854 5.267299969402835 Q 6.153779515039873 5.2040364020511305 6.183418738925715 5.201582853290816 Q 6.196508157776055 5.200509235992628 6.208031164686544 5.2081654392849215 Q 6.219554171597033 5.215821642577215 6.217766371518393 5.227335543141338 Q 6.215978571439754 5.238849443705463 6.20825261936625 5.253908656479901 Q 6.2005266672927455 5.26896786925434 6.19948340448244 5.275439794449509 Q 6.19500403907728 5.297867109045029 6.2207613486419016 5.314980975227801 L 6.450317721603797 5.467504554540926 Q 6.415646813715173 5.233423550605716 6.3844878946411106 5.032290517383933 Q 6.381755350755949 5.016796116953889 6.3767846418926 5.01349344102388 Q 6.3718139330292525 5.0101907650938715 6.365501235813629 5.014789964185249 Q 6.359188538598006 5.019389163276627 6.35363252044587 5.026770924617256 Q 6.339366412120377 5.045301147647614 6.323098637658511 5.034492390058495 Q 6.303667684829059 5.021581929604825 6.3037222563663295 5.00826505171812 Q 6.3037768279036 4.994948173831416 6.305344757567846 4.987196420443211 Q 6.306912687232091 4.979444667055007 6.314115490176049 4.966643349675878 Q 6.324469329692439 4.948119197543096 6.344435506905674 4.918069003051037 Q 6.364401684118907 4.888018808558978 6.375888265643938 4.8722013989966575 Q 6.387374847168967 4.856383989434337 6.4028464817331 4.838980437515042 Q 6.4183181162972325 4.821576885595748 6.429976067596962 4.8192264755533145 Q 6.441634018896692 4.816876065510882 6.450445730063537 4.822730809204987 Q 6.459257441230381 4.828585552899094 6.461445587844479 4.83264490789259 Q 6.463633734458576 4.836704262886086 6.463040836547818 4.842498364145346 Q 6.462447938637061 4.8482924654046045 6.460949757754026 4.852508012928859 Q 6.459154369053416 4.859131577481605 6.452712798346128 4.877649658716812 L 6.436393554336696 4.930641210587572 Q 6.471000850882603 5.220697986364458 6.4761930144256565 5.269743879489446 L 6.923629130570567 5.225713561550456 Q 6.968307836813724 5.2182710912340635 7.003751719488667 5.174729613631811 Q 7.007206034776251 5.170511030658768 7.008708768832467 5.16922968474134 Q 7.0102115028886836 5.167948338823912 7.013667335900663 5.164707823053145 Q 7.017123168912642 5.161467307282377 7.018701722647647 5.160562024310101 Q 7.020280276382651 5.159656741337826 7.023513203531448 5.158222238338427 Q 7.026746130680245 5.156787735339028 7.029606030332677 5.157385186422969 Q 7.037281964042093 5.1585770531420625 7.046093675208938 5.164431796836168 Q 7.054905386375782 5.170286540530275 7.058161079390491 5.183523045565009 Q 7.061416772405199 5.196759550599744 7.054972166249123 5.213321497430398 Q 7.0449337472430384 5.241174438961995 7.022115258999342 5.27551751838149 Q 6.963267578791917 5.364086512673875 6.944740391210346 5.351776538752935 Q 6.5955264525314705 5.372481714664265 6.489749626225713 5.375805771817626 L 6.502736105980923 5.502332773439199 L 6.6617987896080635 5.608018403199474 Q 6.695689986403619 5.630536648176806 6.7212197703909595 5.597995028355497 Q 6.7281284009661295 5.589557862409411 6.730606166775833 5.586318864363037 Q 6.7330839325855365 5.583079866316663 6.738192621286914 5.5783320633164974 Q 6.743301309988292 5.5735842603163315 6.7467616961734524 5.573277946152391 Q 6.756390728838632 5.572510643018145 6.764524616069565 5.577915021812704 Q 6.772658503300499 5.583319400607263 6.776955941401118 5.589105913244552 Q 6.781253379501737 5.594892425881841 6.781941827508407 5.602189261197316 Q 6.782630275515077 5.609486096512791 6.782339138595077 5.615806382350385 Q 6.7820480016750775 5.622126668187979 6.778075090431129 5.6315373481631585 Q 6.774102179187179 5.640948028138338 6.771328723284293 5.647573110415478 Q 6.768555267381408 5.654198192692619 6.761951433245785 5.66511767762159 Q 6.755347599110162 5.676037162550562 6.751444436647424 5.681911636661792 Q 6.7445388415210425 5.6923049370124295 6.737633246394661 5.702698237363066 M 6.634896241857805 4.444434193263203 Q 6.61030020712692 4.5058837665122455 6.612507255877233 4.5470894522956256 Q 6.616318525322748 4.622246962490467 6.66416860285274 4.64139961248583 Q 6.689856539210946 4.651681561430708 6.710813688429528 4.643122900920088 Q 6.767135902425025 4.620669308076035 6.820543119173445 4.568998662902258 Q 6.852285238206518 4.537875311692758 6.907205834584398 4.476583751184705 Q 6.96212643096228 4.415292190676652 6.983791528677626 4.394744896712376 Q 7.005456626392973 4.374197602748099 7.037499163218072 4.351083640450463 Q 7.069541700043172 4.327969678152828 7.098760744843952 4.316289764453938 Q 7.168987189371152 4.288298292945015 7.234466242833247 4.314507182412353 Q 7.281308950309977 4.333256618723602 7.308904181783488 4.373813225722725 Q 7.336499413257 4.4143698327218495 7.3422302647226765 4.465751682851435 Q 7.354698673550272 4.571840235611989 7.310143561455798 4.683154626497551 Q 7.250064722522978 4.833252764433737 7.159577786604635 4.90748212289322 Q 7.129247579622977 4.932158040099028 7.0934806294759865 4.941217064851184 Q 7.057713679328996 4.9502760896033395 7.0262333651645275 4.937675661974812 Q 6.9947530510000595 4.925075234346284 6.98428145003947 4.898677357020255 Q 6.973809849078881 4.872279479694226 6.98802313144386 4.836769685316706 Q 7.0022364138088395 4.8012598909391855 7.034880450375012 4.791243067648007 Q 7.067524486941186 4.781226244356828 7.107315604045073 4.797153184879288 Q 7.12292983987065 4.803402996983038 7.139852859777045 4.813682953456858 Q 7.209784531846881 4.752848163089273 7.244662515522646 4.665710653482024 Q 7.275508362357282 4.588646844407405 7.274112390074329 4.524974946796607 Q 7.272214725235802 4.452336525891941 7.206231986747076 4.4259260295825475 Q 7.13722713809856 4.398305892220814 7.029099935578788 4.515146871101918 Q 7.011263375391456 4.534889066012008 6.975287512675198 4.576589802780769 Q 6.901521989821194 4.661602802740704 6.8553712910727675 4.700984064590287 Q 6.741909145044221 4.797573850278517 6.644697934904341 4.758663729761623 Q 6.598862597480875 4.7403175071344865 6.572979695850805 4.701322855043536 Q 6.547096794220734 4.662328202952585 6.542977469177471 4.612760150244488 Q 6.535142032775058 4.512616674775031 6.579898751711588 4.400798598862838 Q 6.6325181374883195 4.269336806912018 6.708797436376347 4.205783312883257 Q 6.735701655357085 4.183826763495643 6.767791107068348 4.175925483732019 Q 6.79988055877961 4.168024203968395 6.831360872944079 4.180624631596922 Q 6.862841187108548 4.19322505922545 6.874470533057668 4.223300434987206 Q 6.886099879006788 4.253375810748962 6.8731970411151755 4.285611652453378 Q 6.860294203223564 4.317847494157794 6.851223887802081 4.331748403904401 Q 6.759954434168204 4.302813505048675 6.716577988008367 4.325773771625947 Q 6.673201541848529 4.348734038203219 6.634896241857805 4.444434193263203 M 6.796817411611002 4.018286942443609 Q 6.788079094094222 4.039830638480285 6.7771482436572565 4.037777703233147 Q 6.766217393220292 4.035724767986009 6.759304536833141 4.026974183730903 Q 6.7523916804459905 4.018223599475798 6.750030030325091 4.002875509395512 Q 6.747668380204191 3.987527419315226 6.747223044432215 3.972263224266477 Q 6.7467777086602405 3.9569990292177275 6.749917297904428 3.934403829761786 Q 6.753692896823125 3.9025437362608355 6.762104924177251 3.8577539100801017 L 6.779529837982227 3.764974984420009 Q 6.81217651557086 3.591147801861446 6.846694062329047 3.513171487326877 Q 6.881912611366745 3.431462687277247 6.926547918860823 3.3995482182724284 Q 6.981417055925282 3.360171432512771 7.053933917360756 3.3737909053718322 Q 7.161109572864655 3.393919685112063 7.201780257174696 3.4683525383969123 Q 7.229626660538307 3.519952101007177 7.233312051236807 3.566461936584186 Q 7.2369974419353085 3.6129717721611954 7.236454939755379 3.6437830165181633 Q 7.235912437575449 3.674594260875131 7.231600972165031 3.7151860362046527 Q 7.224250060693213 3.777839798773679 7.207526149167748 3.8668862389187098 L 7.201217128652153 3.9004786085542604 L 7.426232683988698 3.942739031690466 Q 7.436363716101007 3.944641752163423 7.447184810892143 3.9237652349661145 Q 7.458005905683279 3.9028887177688065 7.468293788257977 3.881912057388711 Q 7.478581670832676 3.8609353970086153 7.486579854079236 3.862437544750424 Q 7.504175857221667 3.8657422697824018 7.5129712045176 3.8762264573097496 Q 7.521766551813531 3.8867106448370974 7.52172609268518 3.9104399156061995 Q 7.521217413945393 3.939601451722462 7.506346151301491 4.018783465863403 Q 7.4914748886575895 4.097965480004343 7.486137457942649 4.114627698199189 Q 7.469091237667455 4.167180270683123 7.435931937065555 4.161504605566753 Q 7.411404175109439 4.1568980191585405 7.418166494222859 4.112074369537663 Q 7.42492881333628 4.067250719916786 7.403600324678788 4.063244992605298 L 6.8373289508223625 3.956892932485274 Q 6.824531857627868 3.9544894960983807 6.815043793377825 3.975616371252657 Q 6.805555729127782 3.9967432464069335 6.796817411611002 4.018286942443609 M 7.0638275032535205 3.500405600436685 Q 6.900664565023703 3.469761786503797 6.8535972691137115 3.7203715282293333 L 6.849291112253861 3.7432996535361376 Q 6.839977796254651 3.7928883896648076 6.847072036580842 3.8080212723659104 Q 6.8544992027578955 3.8243207226826748 6.859963964407557 3.8275551465590834 Q 6.865428726057219 3.830789570435492 6.872392981173405 3.8348576360766993 Q 6.883422647655515 3.8407932716130793 6.908483621828069 3.8455000012040785 L 7.137764874896113 3.8885615698025817 Q 7.142969666125765 3.8696663595592 7.151331621888497 3.8251431394866846 Q 7.15969357765123 3.780619919414169 7.164053787515399 3.744177450482108 Q 7.168413997379568 3.707734981550047 7.16910804147132 3.671708006362744 Q 7.169802085563073 3.635681031175441 7.163944714008113 3.6080839811307053 Q 7.158087342453153 3.58048693108597 7.146429629122386 3.557320714560523 Q 7.123014059278063 3.511521493726066 7.0638275032535205 3.500405600436685 M 7.560527849213441 2.489396347402934 Q 7.585477263353738 2.488797616271112 7.597880308539178 2.5194333529376927 Q 7.6102833537246175 2.550069089604273 7.611168434528181 2.5869508322464503 L 7.611324625258222 2.5934593750656583 Q 7.613016691500327 2.6639685889404086 7.608041954166521 2.6828108084873312 Q 7.603067216832715 2.701653028034254 7.597929780821782 2.713715515477835 Q 7.586570151663384 2.737866522153338 7.559993601818285 2.73850430096767 Q 7.548061273316405 2.7387906506394115 7.545737787273505 2.7098124449196206 Q 7.543414301230606 2.680834239199829 7.526600565614319 2.6812377319191008 Q 7.520634401363378 2.6813809067549714 7.500813696326719 2.692167687636342 L 7.500800680432549 2.6916253090680744 L 7.360129243905218 2.754697115850031 L 7.367795605571376 3.074158092559477 Q 7.522139062498953 3.128522117208126 7.535698526705636 3.128196719853875 Q 7.549257990912318 3.1278713224996237 7.551258298561177 3.1207683375354685 L 7.55072893588708 3.121323731997906 Q 7.552807338900959 3.1174750184433546 7.556252559736238 3.102739685840947 Q 7.564058551919123 3.0661920674603165 7.5743637447162016 3.0659447654710856 Q 7.622635437291993 3.064786350889951 7.625564013480253 3.1868215287500963 Q 7.627997985690052 3.2882463210160835 7.579726293114261 3.2894047355972176 Q 7.569421100317182 3.2896520375864484 7.558237334663625 3.253288786217636 Q 7.5470535690100675 3.2169255348488233 7.506010731353258 3.202715127000092 L 6.9263603904193065 2.996835638777911 Q 6.91184632801779 3.002610853603175 6.900998756652444 3.0028711714865763 Q 6.859235606895861 3.0038733953376697 6.857192111511163 2.9187199601197023 Q 6.855552108845737 2.850380260518021 6.907138863315108 2.829062727651806 L 7.487415009704043 2.58612180613935 Q 7.533590994384911 2.5654768107831027 7.539136361035535 2.525184606001281 Q 7.5423212639874135 2.499601702033527 7.546814338770155 2.4946096598186758 Q 7.551307413552897 2.489617617603825 7.560527849213441 2.489396347402934 M 7.315219643145083 3.0542548542373766 L 7.308581537118359 2.777641784421048 L 6.924707371859711 2.9279535606079623 L 7.315219643145083 3.0542548542373766 M 7.163743791751892 2.254871426674933 Q 7.23435750912381 2.2375814748841267 7.287845936616072 2.1971151936939735 Q 7.3413343641083335 2.1566489125038206 7.37134133501132 2.1012653607600313 Q 7.434807694268333 1.984067311452777 7.398034289340124 1.83388142002743 Q 7.361260884411917 1.6836955286020832 7.21890942017079 1.5973428634446125 Q 7.203165479425227 1.587792338265906 7.200778433842168 1.5780434295242607 Q 7.198391388259108 1.5682945207826153 7.203639954219247 1.5577931352474814 Q 7.208888520179386 1.5472917497123477 7.219427880981164 1.5447111598928243 Q 7.229967241782942 1.542130570073301 7.244560767185904 1.5447014812398752 L 7.244431737694928 1.5441745131997862 Q 7.32366873080988 1.5666652233976024 7.392423109983979 1.647858033972796 Q 7.461177489158079 1.7290508445479897 7.484918915497694 1.826012963924354 Q 7.508660341837309 1.9229750833007182 7.503376297090529 2.0086116434300276 Q 7.498092252343751 2.094248203559337 7.467277968554737 2.1668655459446247 Q 7.436463684765723 2.239482888329912 7.3739625502110275 2.2933271791233194 Q 7.311461415656333 2.3471714699167268 7.222140332861258 2.369041968637187 Q 7.132819250066183 2.390912467357648 7.050393323520237 2.3747881882340183 Q 6.96796739697429 2.358663909110389 6.9047769753148245 2.310460265710058 Q 6.774460146809504 2.2116653476147183 6.727622441585154 2.0203759490624345 Q 6.702719749826755 1.9186711173252697 6.71214475978419 1.8202908449714026 Q 6.717126173821044 1.769917743223315 6.74026569937698 1.7332518212672494 Q 6.763405224932917 1.696585899311184 6.802400859899499 1.6870377169789474 Q 6.84139649486608 1.677489534646711 6.8663027008941855 1.69708500281566 Q 6.891208906922291 1.716680470984609 6.899208735362813 1.7493524894701231 Q 6.907208563803335 1.7820245079556372 6.905680738640755 1.798596876027978 Q 6.824893048787619 1.8245221250612385 6.795036807527977 1.8759588415424533 Q 6.765180566268334 1.927395558023668 6.785696255333546 2.0111834763978087 Q 6.820663247388087 2.1539918152619104 6.92501509445865 2.220882881067883 Q 7.029366941529213 2.287773946873856 7.163743791751892 2.254871426674933 M 6.845833084205131 0.7882469098132028 Q 6.827331843335104 0.7501878435496387 6.876125518031982 0.7264683039726825 Q 6.924919192728858 0.7027487643957263 6.983878545731003 0.7247598194795379 Q 7.042837898733148 0.7467708745633496 7.067031829101643 0.796540422754164 L 7.245585778294405 1.1688090687804755 Q 7.278318742910605 1.2361443398621657 7.283916610721066 1.256346304017366 Q 7.292408375300518 1.2998744103390594 7.262867883175763 1.3160443351176785 Q 7.245790097031856 1.3243461739696132 7.225269379396806 1.293301233737663 Q 7.215239442997337 1.2788732348135101 7.210190609909028 1.2746919075757015 Q 7.193133001522515 1.2594575007762325 7.166296480439232 1.2725032475435585 L 6.690558152144682 1.5037687584188817 Q 6.655426706362931 1.52084682691429 6.66833699357596 1.5598140368946434 Q 6.670681855622797 1.5671195421437454 6.672796295251579 1.573330576201025 Q 6.67491073488036 1.5795416102583044 6.676076392926063 1.583800897327709 Q 6.677242050971767 1.5880601843971134 6.676977763665138 1.589998385429559 Q 6.676713476358509 1.5919365864620043 6.676073077025081 1.5949624857085571 Q 6.675432677691654 1.5979883849551102 6.673467384748349 1.6001502354278956 Q 6.668072988620834 1.605185522560775 6.657826316934489 1.6101666258719358 Q 6.647579645248145 1.6151477291830965 6.634876286794794 1.6119728244268177 Q 6.622172928341444 1.6087979196705384 6.6095067506776495 1.5914287543091434 Q 6.593255550166453 1.569166675522631 6.560522585550253 1.5018314044409409 L 6.3629388208742075 1.0953800942159564 Q 6.344911970795721 1.05829690144633 6.3631585897105625 1.0213761189661084 Q 6.381405208625404 0.9844553364858869 6.423367768864718 0.9640565324497046 Q 6.495582407416096 0.9289516138758094 6.520013533180361 0.9792090988135924 Q 6.535194038509613 1.0104370506195937 6.521243887453732 1.0319979144489957 Q 6.507293736397851 1.053558778278398 6.475333879471397 1.0690950767013043 Q 6.443374022544942 1.0846313751242107 6.431426345221922 1.0898361278757114 L 6.5917704327621465 1.4196813688265992 L 6.835250869499562 1.3013208663375877 L 6.73349404471442 1.0919960018879857 Q 6.7284181197152515 1.0902408124295913 6.707795948590231 1.0900105311872874 Q 6.651506842916736 1.0896246126332931 6.646525739605575 1.079377940946949 Q 6.619722659883614 1.0242410885394782 6.713406515301618 0.9786995725517221 Q 6.753417328553057 0.959249550098618 6.788023656798283 0.9566029376040952 Q 6.82262998504351 0.9539563251095724 6.834726950227758 0.9788410992049796 Q 6.841131225913536 0.9920153913731363 6.8355234104001275 1.0052981923604811 Q 6.82991559488672 1.0185809933478258 6.812346556094862 1.0382816159763784 Q 6.794777517303004 1.057982238604931 6.789843966011598 1.0652064681214548 L 6.89136359540097 1.274043395824088 L 7.155337375511075 1.1457206867127547 L 7.003769517614325 0.8339291053997113 Q 6.990717139045034 0.8294157610781256 6.952651158628005 0.826806894076162 Q 6.9145851782109755 0.8241980270741983 6.885071636821329 0.8162251717565603 Q 6.855558095431682 0.8082523164389223 6.845833084205131 0.7882469098132028" fill="#1192dc" fill-rule="nonzero"></path></g><g clip-path="url(#SvgjsClipPath1002)"><g clip-path="url(#SvgjsClipPath1000f06fbd2b-34d7-4b7c-b4bc-e0d6e59fd200)"><path d=" M 5.739312926380048 2.078633242096298 C 4.425884786355673 -0.1950091968668482 3.9743423643146643 -0.6130429963476383 1.3996716439908519 0.8734214732909923 C 2.5554340837966953 0.7158285951170497 3.7282003412272613 0.9985787946179531 4.685164619936384 1.6655433377473527 C 3.5504095473706108 1.155497441498297 2.275812290460646 1.0470045909329269 1.0711772785644165 1.357923196210901 C 3.526645194042878 2.2516695717105493 3.1003715693423652 3.6019022643830385 5.739312926380048 2.078633242096298 Z" fill="#facf0e" transform="matrix(1,0,0,1,0,0)" fill-rule="evenodd"></path></g><g clip-path="url(#SvgjsClipPath1000f06fbd2b-34d7-4b7c-b4bc-e0d6e59fd200)"><path d=" M 2.8652618897395032 5.9870570046531535 C 5.491019526425623 5.9870570046531535 6.078793725432769 5.804682206456545 6.078793725432769 2.831753267179288 C 5.637444868074908 3.9113548908939024 4.80623927395905 4.785503166092887 3.750219118338105 5.28062932248195 C 4.759168308335105 4.552866581627427 5.490472959972327 3.503468621913847 5.82390846530258 2.3049537747981175 C 3.822180258590388 3.9825821895343947 2.8652618897395032 2.9383216733544115 2.8652618897395032 5.9870570046531535 Z" fill="#202020" transform="matrix(1,0,0,1,0,0)" fill-rule="evenodd"></path></g><g clip-path="url(#SvgjsClipPath1000f06fbd2b-34d7-4b7c-b4bc-e0d6e59fd200)"><path d=" M 0.9190151728401403 1.5430446028140854 C -0.3938636455029025 3.817236363458551 -0.5300954224690568 4.417644961135941 2.0445752978547556 5.904109430774572 C 1.3306376352238598 4.981932515201144 0.9892886475216068 3.825149616037829 1.0882062506851857 2.663111511015553 C 1.2135247565551717 3.90051951931397 1.755917444649476 5.05852790839531 2.626306958367435 5.946956521917152 C 2.1747645363264434 3.3733844449559625 3.5596044949217864 3.066862946782141 0.9190151728401403 1.5430446028140854 Z" fill="#1192dc" transform="matrix(1,0,0,1,0,0)" fill-rule="evenodd"></path></g></g></g><defs><clipPath id="SvgjsClipPath1002"><path d=" M 0 0 h 6.078793725432769 v 5.984859717927889 h -6.078793725432769 Z"></path></clipPath><clipPath id="SvgjsClipPath1000f06fbd2b-34d7-4b7c-b4bc-e0d6e59fd200"><path d=" M 0 5.399053404737913e-16 L 6.078793725432769 5.399053404737913e-16 L 6.078793725432769 5.984859717927888 L 0 5.984859717927888 Z"></path></clipPath></defs></svg>